Figtree-Light.ufo
<glyph name="exclam" format="2">
  <advance width="292"/>
  <unicode hex="0021"/>
  <outline>
    <contour>
      <point x="114" y="193" type="line"/>
      <point x="178" y="193" type="line"/>
      <point x="178" y="700" type="line"/>
      <point x="114" y="700" type="line"/>
    </contour>
    <contour>
      <point x="146" y="-14" type="curve" smooth="yes"/>
      <point x="171" y="-14"/>
      <point x="192" y="7"/>
      <point x="192" y="32" type="curve" smooth="yes"/>
      <point x="192" y="57"/>
      <point x="171" y="78"/>
      <point x="146" y="78" type="curve" smooth="yes"/>
      <point x="121" y="78"/>
      <point x="100" y="57"/>
      <point x="100" y="32" type="curve" smooth="yes"/>
      <point x="100" y="7"/>
      <point x="121" y="-14"/>
    </contour>
  </outline>
</glyph>
<glyph name="numbersign" format="2">
  <advance width="628"/>
  <unicode hex="0023"/>
  <outline>
    <contour>
      <point x="348" y="0" type="line"/>
      <point x="400" y="0" type="line"/>
      <point x="510" y="700" type="line"/>
      <point x="458" y="700" type="line"/>
    </contour>
    <contour>
      <point x="10" y="200" type="line"/>
      <point x="572" y="200" type="line"/>
      <point x="578" y="242" type="line"/>
      <point x="16" y="242" type="line"/>
    </contour>
    <contour>
      <point x="118" y="0" type="line"/>
      <point x="170" y="0" type="line"/>
      <point x="280" y="700" type="line"/>
      <point x="228" y="700" type="line"/>
    </contour>
    <contour>
      <point x="50" y="458" type="line"/>
      <point x="612" y="458" type="line"/>
      <point x="618" y="500" type="line"/>
      <point x="56" y="500" type="line"/>
    </contour>
  </outline>
</glyph>
<glyph name="dollar" format="2">
  <advance width="567"/>
  <unicode hex="0024"/>
  <outline>
    <contour>
      <point x="294" y="23" type="curve" smooth="yes"/>
      <point x="439" y="23"/>
      <point x="512" y="104"/>
      <point x="512" y="200" type="curve" smooth="yes"/>
      <point x="512" y="275"/>
      <point x="442" y="351"/>
      <point x="316" y="380" type="curve" smooth="yes"/>
      <point x="251" y="395" type="line" smooth="yes"/>
      <point x="188" y="410"/>
      <point x="146" y="440"/>
      <point x="146" y="505" type="curve" smooth="yes"/>
      <point x="146" y="574"/>
      <point x="200" y="619"/>
      <point x="285" y="619" type="curve" smooth="yes"/>
      <point x="366" y="619"/>
      <point x="428" y="581"/>
      <point x="453" y="518" type="curve"/>
      <point x="510" y="541" type="line"/>
      <point x="491" y="603"/>
      <point x="418" y="677"/>
      <point x="295" y="677" type="curve" smooth="yes"/>
      <point x="156" y="677"/>
      <point x="82" y="610"/>
      <point x="82" y="498" type="curve" smooth="yes"/>
      <point x="82" y="404"/>
      <point x="152" y="355"/>
      <point x="237" y="333" type="curve" smooth="yes"/>
      <point x="300" y="317" type="line" smooth="yes"/>
      <point x="387" y="295"/>
      <point x="448" y="257"/>
      <point x="448" y="193" type="curve" smooth="yes"/>
      <point x="448" y="126"/>
      <point x="386" y="81"/>
      <point x="279" y="81" type="curve" smooth="yes"/>
      <point x="194" y="81"/>
      <point x="132" y="128"/>
      <point x="111" y="183" type="curve"/>
      <point x="55" y="161" type="line"/>
      <point x="80" y="90"/>
      <point x="152" y="23"/>
    </contour>
    <contour>
      <point x="265" y="-103" type="line"/>
      <point x="324" y="-103" type="line"/>
      <point x="324" y="780" type="line"/>
      <point x="265" y="780" type="line"/>
    </contour>
  </outline>
</glyph>
<glyph name="percent" format="2">
  <advance width="775"/>
  <unicode hex="0025"/>
  <outline>
    <contour>
      <point x="100" y="0" type="line"/>
      <point x="175" y="0" type="line"/>
      <point x="675" y="700" type="line"/>
      <point x="597" y="700" type="line"/>
    </contour>
    <contour>
      <point x="572" y="-16" type="curve" smooth="yes"/>
      <point x="662" y="-16"/>
      <point x="725" y="52"/>
      <point x="725" y="147" type="curve" smooth="yes"/>
      <point x="725" y="242"/>
      <point x="662" y="310"/>
      <point x="572" y="310" type="curve" smooth="yes"/>
      <point x="482" y="310"/>
      <point x="419" y="242"/>
      <point x="419" y="147" type="curve" smooth="yes"/>
      <point x="419" y="52"/>
      <point x="482" y="-16"/>
    </contour>
    <contour>
      <point x="572" y="38" type="curve" smooth="yes"/>
      <point x="518" y="38"/>
      <point x="479" y="84"/>
      <point x="479" y="147" type="curve" smooth="yes"/>
      <point x="479" y="210"/>
      <point x="518" y="256"/>
      <point x="572" y="256" type="curve" smooth="yes"/>
      <point x="626" y="256"/>
      <point x="665" y="210"/>
      <point x="665" y="147" type="curve" smooth="yes"/>
      <point x="665" y="84"/>
      <point x="626" y="38"/>
    </contour>
    <contour>
      <point x="203" y="390" type="curve" smooth="yes"/>
      <point x="293" y="390"/>
      <point x="356" y="458"/>
      <point x="356" y="553" type="curve" smooth="yes"/>
      <point x="356" y="648"/>
      <point x="293" y="716"/>
      <point x="203" y="716" type="curve" smooth="yes"/>
      <point x="113" y="716"/>
      <point x="50" y="648"/>
      <point x="50" y="553" type="curve" smooth="yes"/>
      <point x="50" y="458"/>
      <point x="113" y="390"/>
    </contour>
    <contour>
      <point x="203" y="444" type="curve" smooth="yes"/>
      <point x="149" y="444"/>
      <point x="110" y="490"/>
      <point x="110" y="553" type="curve" smooth="yes"/>
      <point x="110" y="616"/>
      <point x="149" y="661"/>
      <point x="203" y="661" type="curve" smooth="yes"/>
      <point x="257" y="661"/>
      <point x="296" y="616"/>
      <point x="296" y="553" type="curve" smooth="yes"/>
      <point x="296" y="490"/>
      <point x="257" y="444"/>
    </contour>
  </outline>
</glyph>
<glyph name="ampersand" format="2">
  <advance width="642"/>
  <unicode hex="0026"/>
  <outline>
    <contour>
      <point x="261" y="-15" type="curve" smooth="yes"/>
      <point x="448" y="-15"/>
      <point x="580" y="120"/>
      <point x="580" y="309" type="curve"/>
      <point x="516" y="309" type="line"/>
      <point x="516" y="153"/>
      <point x="410" y="43"/>
      <point x="261" y="43" type="curve" smooth="yes"/>
      <point x="181" y="43"/>
      <point x="124" y="94"/>
      <point x="124" y="167" type="curve" smooth="yes"/>
      <point x="124" y="246"/>
      <point x="175" y="284"/>
      <point x="226" y="319" type="curve" smooth="yes"/>
      <point x="300" y="370" type="line" smooth="yes"/>
      <point x="378" y="424"/>
      <point x="449" y="484"/>
      <point x="449" y="563" type="curve" smooth="yes"/>
      <point x="449" y="654"/>
      <point x="376" y="715"/>
      <point x="282" y="715" type="curve" smooth="yes"/>
      <point x="194" y="715"/>
      <point x="125" y="650"/>
      <point x="125" y="565" type="curve" smooth="yes"/>
      <point x="125" y="507"/>
      <point x="162" y="462"/>
      <point x="205" y="410" type="curve"/>
      <point x="318" y="274" type="line"/>
      <point x="545" y="0" type="line"/>
      <point x="627" y="0" type="line"/>
      <point x="375" y="306" type="line"/>
      <point x="256" y="449" type="line" smooth="yes"/>
      <point x="217" y="496"/>
      <point x="189" y="523"/>
      <point x="189" y="565" type="curve" smooth="yes"/>
      <point x="189" y="616"/>
      <point x="231" y="657"/>
      <point x="282" y="657" type="curve" smooth="yes"/>
      <point x="342" y="657"/>
      <point x="385" y="620"/>
      <point x="385" y="563" type="curve" smooth="yes"/>
      <point x="385" y="501"/>
      <point x="323" y="459"/>
      <point x="266" y="420" type="curve" smooth="yes"/>
      <point x="191" y="368" type="line" smooth="yes"/>
      <point x="120" y="319"/>
      <point x="60" y="261"/>
      <point x="60" y="167" type="curve" smooth="yes"/>
      <point x="60" y="60"/>
      <point x="144" y="-15"/>
    </contour>
  </outline>
</glyph>
<glyph name="quotesingle" format="2">
  <advance width="182"/>
  <unicode hex="0027"/>
  <outline>
    <contour>
      <point x="65" y="490" type="line"/>
      <point x="117" y="490" type="line"/>
      <point x="122" y="716" type="line"/>
      <point x="60" y="716" type="line"/>
    </contour>
  </outline>
</glyph>
<glyph name="parenleft" format="2">
  <advance width="340"/>
  <unicode hex="0028"/>
  <outline>
    <contour>
      <point x="226" y="-100" type="curve"/>
      <point x="290" y="-100" type="line"/>
      <point x="197" y="29"/>
      <point x="124" y="185"/>
      <point x="124" y="350" type="curve" smooth="yes"/>
      <point x="124" y="515"/>
      <point x="197" y="671"/>
      <point x="290" y="800" type="curve"/>
      <point x="226" y="800" type="line"/>
      <point x="133" y="678"/>
      <point x="60" y="523"/>
      <point x="60" y="350" type="curve" smooth="yes"/>
      <point x="60" y="177"/>
      <point x="133" y="22"/>
    </contour>
  </outline>
</glyph>
<glyph name="plus" format="2">
  <advance width="620"/>
  <unicode hex="002B"/>
  <outline>
    <contour>
      <point x="282" y="73" type="line"/>
      <point x="339" y="73" type="line"/>
      <point x="339" y="523" type="line"/>
      <point x="282" y="523" type="line"/>
    </contour>
    <contour>
      <point x="85" y="269" type="line"/>
      <point x="535" y="269" type="line"/>
      <point x="535" y="326" type="line"/>
      <point x="85" y="326" type="line"/>
    </contour>
  </outline>
</glyph>
<glyph name="comma" format="2">
  <advance width="214"/>
  <unicode hex="002C"/>
  <outline>
    <contour>
      <point x="45" y="-116" type="line"/>
      <point x="101" y="-116" type="line"/>
      <point x="171" y="86" type="line"/>
      <point x="100" y="86" type="line"/>
    </contour>
  </outline>
</glyph>
<glyph name="slash" format="2">
  <advance width="372"/>
  <unicode hex="002F"/>
  <outline>
    <contour>
      <point x="15" y="-84" type="line"/>
      <point x="83" y="-84" type="line"/>
      <point x="357" y="747" type="line"/>
      <point x="291" y="747" type="line"/>
    </contour>
  </outline>
</glyph>
<glyph name="one" format="2">
  <advance width="410"/>
  <unicode hex="0031"/>
  <outline>
    <contour>
      <point x="226" y="0" type="line"/>
      <point x="290" y="0" type="line"/>
      <point x="290" y="700" type="line"/>
      <point x="230" y="700" type="line"/>
      <point x="226" y="666" type="line"/>
    </contour>
    <contour>
      <point x="65" y="536" type="line"/>
      <point x="133" y="536"/>
      <point x="204" y="589"/>
      <point x="269" y="653" type="curve"/>
      <point x="230" y="700" type="line"/>
      <point x="182" y="645"/>
      <point x="103" y="594"/>
      <point x="65" y="594" type="curve"/>
    </contour>
  </outline>
</glyph>
<glyph name="two" format="2">
  <advance width="551"/>
  <unicode hex="0032"/>
  <outline>
    <contour>
      <point x="60" y="0" type="line"/>
      <point x="486" y="0" type="line"/>
      <point x="486" y="58" type="line"/>
      <point x="124" y="58" type="line"/>
      <point x="124" y="110"/>
      <point x="153" y="158"/>
      <point x="212" y="203" type="curve" smooth="yes"/>
      <point x="365" y="320" type="line"/>
      <point x="440" y="383"/>
      <point x="476" y="447"/>
      <point x="476" y="515" type="curve" smooth="yes"/>
      <point x="475" y="627"/>
      <point x="389" y="712"/>
      <point x="255" y="712" type="curve" smooth="yes"/>
      <point x="140" y="712"/>
      <point x="53" y="634"/>
      <point x="30" y="548" type="curve"/>
      <point x="95" y="534" type="line"/>
      <point x="113" y="596"/>
      <point x="171" y="654"/>
      <point x="261" y="654" type="curve" smooth="yes"/>
      <point x="350" y="654"/>
      <point x="411" y="591"/>
      <point x="411" y="515" type="curve" smooth="yes"/>
      <point x="411" y="465"/>
      <point x="377" y="406"/>
      <point x="324" y="366" type="curve" smooth="yes"/>
      <point x="164" y="245" type="line" smooth="yes"/>
      <point x="94" y="188"/>
      <point x="60" y="126"/>
      <point x="60" y="58" type="curve" smooth="yes"/>
    </contour>
  </outline>
</glyph>
<glyph name="three" format="2">
  <advance width="539"/>
  <unicode hex="0033"/>
  <outline>
    <contour>
      <point x="264" y="-12" type="curve" smooth="yes"/>
      <point x="392" y="-12"/>
      <point x="489" y="72"/>
      <point x="489" y="196" type="curve" smooth="yes"/>
      <point x="489" y="333"/>
      <point x="369" y="407"/>
      <point x="199" y="407" type="curve" smooth="yes"/>
      <point x="189" y="407" type="line"/>
      <point x="189" y="351" type="line"/>
      <point x="199" y="351" type="line" smooth="yes"/>
      <point x="335" y="351"/>
      <point x="425" y="299"/>
      <point x="425" y="198" type="curve" smooth="yes"/>
      <point x="425" y="111"/>
      <point x="360" y="46"/>
      <point x="260" y="46" type="curve" smooth="yes"/>
      <point x="179" y="46"/>
      <point x="139" y="89"/>
      <point x="115" y="120" type="curve"/>
      <point x="67" y="80" type="line"/>
      <point x="104" y="37"/>
      <point x="169" y="-12"/>
    </contour>
    <contour>
      <point x="189" y="351" type="line"/>
      <point x="198" y="351" type="line" smooth="yes"/>
      <point x="357" y="351"/>
      <point x="470" y="418"/>
      <point x="470" y="532" type="curve" smooth="yes"/>
      <point x="470" y="632"/>
      <point x="382" y="712"/>
      <point x="262" y="712" type="curve" smooth="yes"/>
      <point x="178" y="712"/>
      <point x="117" y="677"/>
      <point x="75" y="627" type="curve"/>
      <point x="119" y="589" type="line"/>
      <point x="155" y="629"/>
      <point x="200" y="654"/>
      <point x="258" y="654" type="curve" smooth="yes"/>
      <point x="348" y="654"/>
      <point x="406" y="597"/>
      <point x="406" y="531" type="curve" smooth="yes"/>
      <point x="406" y="452"/>
      <point x="323" y="408"/>
      <point x="199" y="408" type="curve" smooth="yes"/>
      <point x="189" y="408" type="line"/>
    </contour>
  </outline>
</glyph>
<glyph name="four" format="2">
  <advance width="616"/>
  <unicode hex="0034"/>
  <outline>
    <contour>
      <point x="372" y="0" type="line"/>
      <point x="435" y="0" type="line"/>
      <point x="435" y="182" type="line"/>
      <point x="586" y="182" type="line"/>
      <point x="586" y="241" type="line"/>
      <point x="435" y="241" type="line"/>
      <point x="435" y="700" type="line"/>
      <point x="372" y="700" type="line"/>
      <point x="50" y="231" type="line"/>
      <point x="50" y="182" type="line"/>
      <point x="372" y="182" type="line"/>
    </contour>
    <contour>
      <point x="129" y="241" type="line"/>
      <point x="372" y="597" type="line"/>
      <point x="372" y="241" type="line"/>
    </contour>
  </outline>
</glyph>
<glyph name="five" format="2">
  <advance width="572"/>
  <unicode hex="0035"/>
  <outline>
    <contour>
      <point x="289" y="-12" type="curve" smooth="yes"/>
      <point x="425" y="-12"/>
      <point x="522" y="80"/>
      <point x="522" y="212" type="curve" smooth="yes"/>
      <point x="522" y="344"/>
      <point x="427" y="437"/>
      <point x="294" y="437" type="curve" smooth="yes"/>
      <point x="249" y="437"/>
      <point x="202" y="422"/>
      <point x="163" y="398" type="curve"/>
      <point x="184" y="642" type="line"/>
      <point x="490" y="642" type="line"/>
      <point x="490" y="700" type="line"/>
      <point x="125" y="700" type="line"/>
      <point x="95" y="335" type="line"/>
      <point x="153" y="321" type="line"/>
      <point x="182" y="355"/>
      <point x="240" y="381"/>
      <point x="294" y="381" type="curve" smooth="yes"/>
      <point x="392" y="381"/>
      <point x="460" y="313"/>
      <point x="460" y="212" type="curve" smooth="yes"/>
      <point x="460" y="112"/>
      <point x="390" y="44"/>
      <point x="289" y="44" type="curve" smooth="yes"/>
      <point x="225" y="44"/>
      <point x="164" y="72"/>
      <point x="110" y="136" type="curve"/>
      <point x="65" y="97" type="line"/>
      <point x="119" y="20"/>
      <point x="212" y="-12"/>
    </contour>
  </outline>
</glyph>
<glyph name="eight" format="2">
  <advance width="615"/>
  <unicode hex="0038"/>
  <outline>
    <contour>
      <point x="307" y="-12" type="curve" smooth="yes"/>
      <point x="452" y="-12"/>
      <point x="555" y="67"/>
      <point x="555" y="182" type="curve" smooth="yes"/>
      <point x="555" y="301"/>
      <point x="452" y="384"/>
      <point x="307" y="384" type="curve" smooth="yes"/>
      <point x="162" y="384"/>
      <point x="60" y="301"/>
      <point x="60" y="182" type="curve" smooth="yes"/>
      <point x="60" y="67"/>
      <point x="162" y="-12"/>
    </contour>
    <contour>
      <point x="307" y="46" type="curve" smooth="yes"/>
      <point x="200" y="46"/>
      <point x="124" y="103"/>
      <point x="124" y="186" type="curve" smooth="yes"/>
      <point x="124" y="270"/>
      <point x="200" y="327"/>
      <point x="307" y="327" type="curve" smooth="yes"/>
      <point x="415" y="327"/>
      <point x="491" y="270"/>
      <point x="491" y="186" type="curve" smooth="yes"/>
      <point x="491" y="103"/>
      <point x="415" y="46"/>
    </contour>
    <contour>
      <point x="307" y="337" type="curve" smooth="yes"/>
      <point x="436" y="337"/>
      <point x="528" y="412"/>
      <point x="528" y="522" type="curve" smooth="yes"/>
      <point x="528" y="634"/>
      <point x="436" y="712"/>
      <point x="307" y="712" type="curve" smooth="yes"/>
      <point x="178" y="712"/>
      <point x="87" y="634"/>
      <point x="87" y="522" type="curve" smooth="yes"/>
      <point x="87" y="412"/>
      <point x="178" y="337"/>
    </contour>
    <contour>
      <point x="307" y="394" type="curve" smooth="yes"/>
      <point x="216" y="394"/>
      <point x="151" y="444"/>
      <point x="151" y="517" type="curve" smooth="yes"/>
      <point x="151" y="598"/>
      <point x="216" y="654"/>
      <point x="307" y="654" type="curve" smooth="yes"/>
      <point x="399" y="654"/>
      <point x="464" y="598"/>
      <point x="464" y="517" type="curve" smooth="yes"/>
      <point x="464" y="444"/>
      <point x="399" y="394"/>
    </contour>
  </outline>
</glyph>
<glyph name="semicolon" format="2">
  <advance width="241"/>
  <unicode hex="003B"/>
  <outline>
    <contour>
      <point x="112" y="410" type="curve" smooth="yes"/>
      <point x="137" y="410"/>
      <point x="158" y="431"/>
      <point x="158" y="456" type="curve" smooth="yes"/>
      <point x="158" y="481"/>
      <point x="137" y="502"/>
      <point x="112" y="502" type="curve" smooth="yes"/>
      <point x="87" y="502"/>
      <point x="66" y="481"/>
      <point x="66" y="456" type="curve" smooth="yes"/>
      <point x="66" y="431"/>
      <point x="87" y="410"/>
    </contour>
    <component base="comma"/>
  </outline>
</glyph>
<glyph name="equal" format="2">
  <advance width="640"/>
  <unicode hex="003D"/>
  <outline>
    <contour>
      <point x="120" y="369" type="line"/>
      <point x="520" y="369" type="line"/>
      <point x="520" y="426" type="line"/>
      <point x="120" y="426" type="line"/>
    </contour>
    <contour>
      <point x="120" y="169" type="line"/>
      <point x="520" y="169" type="line"/>
      <point x="520" y="226" type="line"/>
      <point x="120" y="226" type="line"/>
    </contour>
  </outline>
</glyph>
<glyph name="greater" format="2">
  <advance width="541"/>
  <unicode hex="003E"/>
  <outline>
    <contour>
      <point x="110" y="107" type="line"/>
      <point x="441" y="266" type="line"/>
      <point x="441" y="332" type="line"/>
      <point x="110" y="169" type="line"/>
    </contour>
    <contour>
      <point x="441" y="266" type="line"/>
      <point x="441" y="332" type="line"/>
      <point x="110" y="489" type="line"/>
      <point x="110" y="426" type="line"/>
    </contour>
  </outline>
</glyph>
<glyph name="question" format="2">
  <advance width="500"/>
  <unicode hex="003F"/>
  <outline>
    <contour>
      <point x="180" y="183" type="line"/>
      <point x="244" y="183" type="line"/>
      <point x="244" y="305" type="line"/>
      <point x="366" y="313"/>
      <point x="450" y="393"/>
      <point x="450" y="510" type="curve" smooth="yes"/>
      <point x="450" y="628"/>
      <point x="360" y="712"/>
      <point x="232" y="712" type="curve" smooth="yes"/>
      <point x="133" y="712"/>
      <point x="61" y="662"/>
      <point x="35" y="593" type="curve"/>
      <point x="93" y="573" type="line"/>
      <point x="110" y="620"/>
      <point x="165" y="654"/>
      <point x="232" y="654" type="curve" smooth="yes"/>
      <point x="322" y="654"/>
      <point x="386" y="594"/>
      <point x="386" y="510" type="curve" smooth="yes"/>
      <point x="386" y="421"/>
      <point x="319" y="362"/>
      <point x="224" y="362" type="curve" smooth="yes"/>
      <point x="180" y="362" type="line"/>
    </contour>
    <contour>
      <point x="212" y="-14" type="curve" smooth="yes"/>
      <point x="239" y="-14"/>
      <point x="258" y="5"/>
      <point x="258" y="32" type="curve" smooth="yes"/>
      <point x="258" y="59"/>
      <point x="239" y="78"/>
      <point x="212" y="78" type="curve" smooth="yes"/>
      <point x="185" y="78"/>
      <point x="166" y="59"/>
      <point x="166" y="32" type="curve" smooth="yes"/>
      <point x="166" y="5"/>
      <point x="185" y="-14"/>
    </contour>
  </outline>
</glyph>
<glyph name="at" format="2">
  <advance width="988"/>
  <unicode hex="0040"/>
  <outline>
    <contour>
      <point x="514" y="-213" type="curve" smooth="yes"/>
      <point x="574" y="-213"/>
      <point x="657" y="-194"/>
      <point x="713" y="-166" type="curve"/>
      <point x="685" y="-119" type="line"/>
      <point x="639" y="-140"/>
      <point x="568" y="-155"/>
      <point x="514" y="-155" type="curve" smooth="yes"/>
      <point x="280" y="-155"/>
      <point x="114" y="14"/>
      <point x="114" y="252" type="curve" smooth="yes"/>
      <point x="114" y="489"/>
      <point x="280" y="657"/>
      <point x="514" y="657" type="curve" smooth="yes"/>
      <point x="725" y="657"/>
      <point x="874" y="489"/>
      <point x="874" y="252" type="curve"/>
      <point x="938" y="252" type="line"/>
      <point x="938" y="523"/>
      <point x="762" y="715"/>
      <point x="514" y="715" type="curve" smooth="yes"/>
      <point x="242" y="715"/>
      <point x="50" y="523"/>
      <point x="50" y="252" type="curve" smooth="yes"/>
      <point x="50" y="-20"/>
      <point x="242" y="-213"/>
    </contour>
    <contour>
      <point x="465" y="15" type="curve" smooth="yes"/>
      <point x="592" y="15"/>
      <point x="682" y="114"/>
      <point x="682" y="253" type="curve" smooth="yes"/>
      <point x="682" y="392"/>
      <point x="592" y="490"/>
      <point x="465" y="490" type="curve" smooth="yes"/>
      <point x="331" y="490"/>
      <point x="237" y="392"/>
      <point x="237" y="253" type="curve" smooth="yes"/>
      <point x="237" y="114"/>
      <point x="331" y="15"/>
    </contour>
    <contour>
      <point x="475" y="73" type="curve" smooth="yes"/>
      <point x="373" y="73"/>
      <point x="301" y="148"/>
      <point x="301" y="253" type="curve" smooth="yes"/>
      <point x="301" y="358"/>
      <point x="373" y="432"/>
      <point x="475" y="432" type="curve" smooth="yes"/>
      <point x="576" y="432"/>
      <point x="648" y="358"/>
      <point x="648" y="253" type="curve" smooth="yes"/>
      <point x="648" y="148"/>
      <point x="576" y="73"/>
    </contour>
    <contour>
      <point x="753" y="-15" type="curve" smooth="yes"/>
      <point x="861" y="-15"/>
      <point x="938" y="96"/>
      <point x="938" y="252" type="curve"/>
      <point x="874" y="252" type="line"/>
      <point x="874" y="130"/>
      <point x="825" y="43"/>
      <point x="755" y="43" type="curve" smooth="yes"/>
      <point x="730" y="43"/>
      <point x="712" y="67"/>
      <point x="712" y="100" type="curve"/>
      <point x="646" y="100" type="line"/>
      <point x="646" y="28"/>
      <point x="682" y="-16"/>
    </contour>
    <contour>
      <point x="646" y="100" type="line"/>
      <point x="712" y="100" type="line"/>
      <point x="712" y="479" type="line"/>
      <point x="646" y="479" type="line"/>
    </contour>
  </outline>
</glyph>
<glyph name="A" format="2">
  <advance width="662"/>
  <unicode hex="0041"/>
  <anchor x="331" y="0" name="bottom"/>
  <anchor x="652" y="0" name="ogonek"/>
  <anchor x="331" y="670" name="top"/>
  <outline>
    <contour>
      <point x="584" y="0" type="line"/>
      <point x="652" y="0" type="line"/>
      <point x="364" y="700" type="line"/>
      <point x="298" y="700" type="line"/>
    </contour>
    <contour>
      <point x="10" y="0" type="line"/>
      <point x="78" y="0" type="line"/>
      <point x="364" y="700" type="line"/>
      <point x="298" y="700" type="line"/>
    </contour>
    <contour>
      <point x="146" y="217" type="line"/>
      <point x="516" y="217" type="line"/>
      <point x="516" y="275" type="line"/>
      <point x="146" y="275" type="line"/>
    </contour>
  </outline>
</glyph>
<glyph name="B" format="2">
  <advance width="610"/>
  <unicode hex="0042"/>
  <outline>
    <contour>
      <point x="100" y="0" type="line"/>
      <point x="342" y="0" type="line" smooth="yes"/>
      <point x="479" y="0"/>
      <point x="560" y="69"/>
      <point x="560" y="187" type="curve" smooth="yes"/>
      <point x="560" y="264"/>
      <point x="520" y="322"/>
      <point x="448" y="355" type="curve"/>
      <point x="507" y="386"/>
      <point x="540" y="440"/>
      <point x="540" y="513" type="curve" smooth="yes"/>
      <point x="540" y="631"/>
      <point x="456" y="700"/>
      <point x="315" y="700" type="curve" smooth="yes"/>
      <point x="100" y="700" type="line"/>
    </contour>
    <contour>
      <point x="164" y="59" type="line"/>
      <point x="164" y="326" type="line"/>
      <point x="315" y="326" type="line" smooth="yes"/>
      <point x="429" y="326"/>
      <point x="497" y="275"/>
      <point x="497" y="187" type="curve" smooth="yes"/>
      <point x="497" y="107"/>
      <point x="439" y="59"/>
      <point x="342" y="59" type="curve" smooth="yes"/>
    </contour>
    <contour>
      <point x="164" y="385" type="line"/>
      <point x="164" y="642" type="line"/>
      <point x="315" y="642" type="line" smooth="yes"/>
      <point x="417" y="642"/>
      <point x="477" y="595"/>
      <point x="477" y="513" type="curve" smooth="yes"/>
      <point x="477" y="433"/>
      <point x="427" y="385"/>
      <point x="342" y="385" type="curve" smooth="yes"/>
    </contour>
  </outline>
</glyph>
<glyph name="C" format="2">
  <advance width="719"/>
  <unicode hex="0043"/>
  <anchor x="389" y="0" name="bottom"/>
  <anchor x="386" y="670" name="top"/>
  <outline>
    <contour>
      <point x="389" y="-12" type="curve" smooth="yes"/>
      <point x="507" y="-12"/>
      <point x="627" y="63"/>
      <point x="679" y="170" type="curve"/>
      <point x="626" y="203" type="line"/>
      <point x="584" y="110"/>
      <point x="486" y="44"/>
      <point x="389" y="44" type="curve" smooth="yes"/>
      <point x="228" y="44"/>
      <point x="114" y="170"/>
      <point x="114" y="350" type="curve" smooth="yes"/>
      <point x="114" y="528"/>
      <point x="227" y="654"/>
      <point x="386" y="654" type="curve" smooth="yes"/>
      <point x="481" y="654"/>
      <point x="579" y="594"/>
      <point x="622" y="509" type="curve"/>
      <point x="675" y="542" type="line"/>
      <point x="624" y="642"/>
      <point x="504" y="712"/>
      <point x="386" y="712" type="curve" smooth="yes"/>
      <point x="189" y="712"/>
      <point x="50" y="562"/>
      <point x="50" y="350" type="curve" smooth="yes"/>
      <point x="50" y="138"/>
      <point x="190" y="-12"/>
    </contour>
  </outline>
</glyph>
<glyph name="D" format="2">
  <advance width="683"/>
  <unicode hex="0044"/>
  <anchor x="308" y="670" name="top"/>
  <outline>
    <contour>
      <point x="100" y="0" type="line"/>
      <point x="309" y="0" type="line" smooth="yes"/>
      <point x="498" y="0"/>
      <point x="633" y="145"/>
      <point x="633" y="350" type="curve" smooth="yes"/>
      <point x="633" y="556"/>
      <point x="498" y="700"/>
      <point x="309" y="700" type="curve" smooth="yes"/>
      <point x="100" y="700" type="line"/>
    </contour>
    <contour>
      <point x="164" y="58" type="line"/>
      <point x="164" y="642" type="line"/>
      <point x="309" y="642" type="line" smooth="yes"/>
      <point x="453" y="642"/>
      <point x="569" y="511"/>
      <point x="569" y="350" type="curve" smooth="yes"/>
      <point x="569" y="189"/>
      <point x="453" y="58"/>
      <point x="309" y="58" type="curve" smooth="yes"/>
    </contour>
  </outline>
</glyph>
<glyph name="E" format="2">
  <advance width="593"/>
  <unicode hex="0045"/>
  <anchor x="277" y="0" name="bottom"/>
  <anchor x="503" y="0" name="ogonek"/>
  <anchor x="308" y="670" name="top"/>
  <anchor x="20" y="700" name="topleft"/>
  <outline>
    <contour>
      <point x="100" y="0" type="line"/>
      <point x="503" y="0" type="line"/>
      <point x="503" y="58" type="line"/>
      <point x="164" y="58" type="line"/>
      <point x="164" y="332" type="line"/>
      <point x="479" y="332" type="line"/>
      <point x="479" y="390" type="line"/>
      <point x="164" y="390" type="line"/>
      <point x="164" y="642" type="line"/>
      <point x="503" y="642" type="line"/>
      <point x="503" y="700" type="line"/>
      <point x="100" y="700" type="line"/>
    </contour>
  </outline>
</glyph>
<glyph name="F" format="2">
  <advance width="539"/>
  <unicode hex="0046"/>
  <outline>
    <contour>
      <point x="100" y="0" type="line"/>
      <point x="164" y="0" type="line"/>
      <point x="164" y="317" type="line"/>
      <point x="469" y="317" type="line"/>
      <point x="469" y="375" type="line"/>
      <point x="164" y="375" type="line"/>
      <point x="164" y="642" type="line"/>
      <point x="503" y="642" type="line"/>
      <point x="503" y="700" type="line"/>
      <point x="100" y="700" type="line"/>
    </contour>
  </outline>
</glyph>
<glyph name="G" format="2">
  <advance width="767"/>
  <unicode hex="0047"/>
  <anchor x="413" y="0" name="bottom"/>
  <anchor x="384" y="700" name="top"/>
  <outline>
    <contour>
      <point x="413" y="-12" type="curve" smooth="yes"/>
      <point x="597" y="-12"/>
      <point x="727" y="114"/>
      <point x="727" y="291" type="curve"/>
      <point x="665" y="291" type="line"/>
      <point x="665" y="147"/>
      <point x="559" y="46"/>
      <point x="413" y="46" type="curve" smooth="yes"/>
      <point x="238" y="46"/>
      <point x="114" y="172"/>
      <point x="114" y="349" type="curve" smooth="yes"/>
      <point x="114" y="528"/>
      <point x="238" y="654"/>
      <point x="413" y="654" type="curve" smooth="yes"/>
      <point x="501" y="654"/>
      <point x="595" y="605"/>
      <point x="639" y="535" type="curve"/>
      <point x="688" y="572" type="line"/>
      <point x="633" y="654"/>
      <point x="519" y="712"/>
      <point x="413" y="712" type="curve" smooth="yes"/>
      <point x="200" y="712"/>
      <point x="50" y="562"/>
      <point x="50" y="349" type="curve" smooth="yes"/>
      <point x="50" y="138"/>
      <point x="200" y="-12"/>
    </contour>
    <contour>
      <point x="489" y="291" type="line"/>
      <point x="699" y="291" type="line"/>
      <point x="727" y="291" type="line"/>
      <point x="727" y="350" type="line"/>
      <point x="489" y="350" type="line"/>
    </contour>
  </outline>
</glyph>
<glyph name="H" format="2">
  <advance width="752"/>
  <unicode hex="0048"/>
  <outline>
    <contour>
      <point x="588" y="0" type="line"/>
      <point x="652" y="0" type="line"/>
      <point x="652" y="700" type="line"/>
      <point x="588" y="700" type="line"/>
    </contour>
    <contour>
      <point x="100" y="0" type="line"/>
      <point x="164" y="0" type="line"/>
      <point x="164" y="700" type="line"/>
      <point x="100" y="700" type="line"/>
    </contour>
    <contour>
      <point x="164" y="332" type="line"/>
      <point x="588" y="332" type="line"/>
      <point x="588" y="390" type="line"/>
      <point x="164" y="390" type="line"/>
    </contour>
  </outline>
</glyph>
<glyph name="K" format="2">
  <advance width="588"/>
  <unicode hex="004B"/>
  <anchor x="294" y="0" name="bottom"/>
  <anchor x="294" y="700" name="top"/>
  <outline>
    <contour>
      <point x="149" y="264" type="line"/>
      <point x="569" y="700" type="line"/>
      <point x="491" y="700" type="line"/>
      <point x="108" y="305" type="line"/>
    </contour>
    <contour>
      <point x="100" y="0" type="line"/>
      <point x="160" y="0" type="line"/>
      <point x="160" y="700" type="line"/>
      <point x="100" y="700" type="line"/>
    </contour>
    <contour>
      <point x="506" y="0" type="line"/>
      <point x="583" y="0" type="line"/>
      <point x="254" y="399" type="line"/>
      <point x="215" y="356" type="line"/>
    </contour>
  </outline>
</glyph>
<glyph name="L" format="2">
  <advance width="513"/>
  <unicode hex="004C"/>
  <anchor x="284" y="0" name="bottom"/>
  <anchor x="257" y="350" name="center"/>
  <anchor x="132" y="670" name="top"/>
  <anchor x="204" y="759" name="top_caron"/>
  <anchor x="493" y="700" name="topright"/>
  <outline>
    <contour>
      <point x="100" y="0" type="line"/>
      <point x="503" y="0" type="line"/>
      <point x="503" y="58" type="line"/>
      <point x="164" y="58" type="line"/>
      <point x="164" y="700" type="line"/>
      <point x="100" y="700" type="line"/>
    </contour>
  </outline>
</glyph>
<glyph name="M" format="2">
  <advance width="841"/>
  <unicode hex="004D"/>
  <outline>
    <contour>
      <point x="100" y="0" type="line"/>
      <point x="164" y="0" type="line"/>
      <point x="164" y="592" type="line"/>
      <point x="420" y="211" type="line"/>
      <point x="677" y="594" type="line"/>
      <point x="677" y="0" type="line"/>
      <point x="741" y="0" type="line"/>
      <point x="741" y="700" type="line"/>
      <point x="677" y="700" type="line"/>
      <point x="421" y="320" type="line"/>
      <point x="164" y="700" type="line"/>
      <point x="100" y="700" type="line"/>
    </contour>
  </outline>
</glyph>
<glyph name="N" format="2">
  <advance width="774"/>
  <unicode hex="004E"/>
  <anchor x="387" y="0" name="bottom"/>
  <anchor x="381" y="670" name="top"/>
  <outline>
    <contour>
      <point x="100" y="0" type="line"/>
      <point x="164" y="0" type="line"/>
      <point x="164" y="598" type="line"/>
      <point x="610" y="0" type="line"/>
      <point x="674" y="0" type="line"/>
      <point x="674" y="700" type="line"/>
      <point x="610" y="700" type="line"/>
      <point x="610" y="103" type="line"/>
      <point x="164" y="700" type="line"/>
      <point x="100" y="700" type="line"/>
    </contour>
  </outline>
</glyph>
<glyph name="P" format="2">
  <advance width="570"/>
  <unicode hex="0050"/>
  <outline>
    <contour>
      <point x="100" y="0" type="line"/>
      <point x="164" y="0" type="line"/>
      <point x="164" y="266" type="line"/>
      <point x="342" y="266" type="line" smooth="yes"/>
      <point x="458" y="266"/>
      <point x="540" y="356"/>
      <point x="540" y="483" type="curve" smooth="yes"/>
      <point x="540" y="611"/>
      <point x="447" y="700"/>
      <point x="315" y="700" type="curve" smooth="yes"/>
      <point x="100" y="700" type="line"/>
    </contour>
    <contour>
      <point x="164" y="325" type="line"/>
      <point x="164" y="642" type="line"/>
      <point x="315" y="642" type="line" smooth="yes"/>
      <point x="410" y="642"/>
      <point x="477" y="577"/>
      <point x="477" y="483" type="curve" smooth="yes"/>
      <point x="477" y="390"/>
      <point x="421" y="325"/>
      <point x="342" y="325" type="curve" smooth="yes"/>
    </contour>
  </outline>
</glyph>
<glyph name="Q" format="2">
  <advance width="776"/>
  <unicode hex="0051"/>
  <outline>
    <contour>
      <point x="389" y="-12" type="curve" smooth="yes"/>
      <point x="584" y="-12"/>
      <point x="722" y="137"/>
      <point x="722" y="350" type="curve" smooth="yes"/>
      <point x="722" y="562"/>
      <point x="584" y="712"/>
      <point x="386" y="712" type="curve" smooth="yes"/>
      <point x="188" y="712"/>
      <point x="50" y="563"/>
      <point x="50" y="350" type="curve" smooth="yes"/>
      <point x="50" y="137"/>
      <point x="191" y="-12"/>
    </contour>
    <contour>
      <point x="684" y="-38" type="line"/>
      <point x="726" y="5" type="line"/>
      <point x="481" y="253" type="line"/>
      <point x="437" y="211" type="line"/>
    </contour>
    <contour>
      <point x="389" y="46" type="curve" smooth="yes"/>
      <point x="228" y="46"/>
      <point x="114" y="172"/>
      <point x="114" y="350" type="curve" smooth="yes"/>
      <point x="114" y="528"/>
      <point x="227" y="654"/>
      <point x="386" y="654" type="curve" smooth="yes"/>
      <point x="545" y="654"/>
      <point x="658" y="528"/>
      <point x="658" y="350" type="curve" smooth="yes"/>
      <point x="658" y="172"/>
      <point x="547" y="46"/>
    </contour>
  </outline>
</glyph>
<glyph name="R" format="2">
  <advance width="618"/>
  <unicode hex="0052"/>
  <anchor x="309" y="0" name="bottom"/>
  <anchor x="288" y="670" name="top"/>
  <outline>
    <contour>
      <point x="100" y="0" type="line"/>
      <point x="164" y="0" type="line"/>
      <point x="164" y="286" type="line"/>
      <point x="302" y="286" type="line" smooth="yes"/>
      <point x="436" y="286"/>
      <point x="540" y="372"/>
      <point x="540" y="493" type="curve" smooth="yes"/>
      <point x="540" y="615"/>
      <point x="447" y="700"/>
      <point x="315" y="700" type="curve" smooth="yes"/>
      <point x="100" y="700" type="line"/>
    </contour>
    <contour>
      <point x="498" y="0" type="line"/>
      <point x="568" y="0" type="line"/>
      <point x="381" y="321" type="line"/>
      <point x="328" y="290" type="line"/>
    </contour>
    <contour>
      <point x="164" y="345" type="line"/>
      <point x="164" y="642" type="line"/>
      <point x="315" y="642" type="line" smooth="yes"/>
      <point x="410" y="642"/>
      <point x="477" y="581"/>
      <point x="477" y="493" type="curve" smooth="yes"/>
      <point x="477" y="406"/>
      <point x="411" y="345"/>
      <point x="332" y="345" type="curve" smooth="yes"/>
    </contour>
  </outline>
</glyph>
<glyph name="S" format="2">
  <advance width="617"/>
  <unicode hex="0053"/>
  <anchor x="319" y="0" name="bottom"/>
  <anchor x="320" y="670" name="top"/>
  <outline>
    <contour>
      <point x="319" y="-12" type="curve" smooth="yes"/>
      <point x="481" y="-12"/>
      <point x="562" y="78"/>
      <point x="562" y="184" type="curve" smooth="yes"/>
      <point x="562" y="266"/>
      <point x="484" y="346"/>
      <point x="343" y="380" type="curve" smooth="yes"/>
      <point x="272" y="397" type="line" smooth="yes"/>
      <point x="198" y="415"/>
      <point x="149" y="448"/>
      <point x="149" y="521" type="curve" smooth="yes"/>
      <point x="149" y="602"/>
      <point x="211" y="654"/>
      <point x="310" y="654" type="curve" smooth="yes"/>
      <point x="403" y="654"/>
      <point x="472" y="611"/>
      <point x="501" y="538" type="curve"/>
      <point x="560" y="561" type="line"/>
      <point x="539" y="630"/>
      <point x="458" y="712"/>
      <point x="320" y="712" type="curve" smooth="yes"/>
      <point x="167" y="712"/>
      <point x="85" y="638"/>
      <point x="85" y="513" type="curve" smooth="yes"/>
      <point x="85" y="411"/>
      <point x="165" y="359"/>
      <point x="258" y="335" type="curve" smooth="yes"/>
      <point x="329" y="317" type="line" smooth="yes"/>
      <point x="429" y="292"/>
      <point x="498" y="249"/>
      <point x="498" y="175" type="curve" smooth="yes"/>
      <point x="498" y="98"/>
      <point x="427" y="46"/>
      <point x="304" y="46" type="curve" smooth="yes"/>
      <point x="208" y="46"/>
      <point x="138" y="101"/>
      <point x="115" y="164" type="curve"/>
      <point x="55" y="141" type="line"/>
      <point x="83" y="62"/>
      <point x="162" y="-12"/>
    </contour>
  </outline>
</glyph>
<glyph name="T" format="2">
  <advance width="540"/>
  <unicode hex="0054"/>
  <anchor x="270" y="0" name="bottom"/>
  <anchor x="270" y="350" name="center"/>
  <anchor x="270" y="670" name="top"/>
  <outline>
    <contour>
      <point x="238" y="0" type="line"/>
      <point x="302" y="0" type="line"/>
      <point x="302" y="642" type="line"/>
      <point x="530" y="642" type="line"/>
      <point x="530" y="700" type="line"/>
      <point x="10" y="700" type="line"/>
      <point x="10" y="642" type="line"/>
      <point x="238" y="642" type="line"/>
    </contour>
  </outline>
</glyph>
<glyph name="U" format="2">
  <advance width="709"/>
  <unicode hex="0055"/>
  <anchor x="355" y="0" name="bottom"/>
  <anchor x="536" y="50" name="ogonek"/>
  <anchor x="355" y="670" name="top"/>
  <anchor x="669" y="700" name="topright"/>
  <outline>
    <contour>
      <point x="352" y="-16" type="curve" smooth="yes"/>
      <point x="508" y="-16"/>
      <point x="619" y="92"/>
      <point x="619" y="245" type="curve" smooth="yes"/>
      <point x="619" y="700" type="line"/>
      <point x="555" y="700" type="line"/>
      <point x="555" y="245" type="line" smooth="yes"/>
      <point x="555" y="126"/>
      <point x="472" y="42"/>
      <point x="354" y="42" type="curve" smooth="yes"/>
      <point x="237" y="42"/>
      <point x="154" y="126"/>
      <point x="154" y="245" type="curve" smooth="yes"/>
      <point x="154" y="700" type="line"/>
      <point x="90" y="700" type="line"/>
      <point x="90" y="245" type="line" smooth="yes"/>
      <point x="90" y="92"/>
      <point x="199" y="-16"/>
    </contour>
  </outline>
</glyph>
<glyph name="V" format="2">
  <advance width="681"/>
  <unicode hex="0056"/>
  <outline>
    <contour>
      <point x="310" y="0" type="line"/>
      <point x="376" y="0" type="line"/>
      <point x="671" y="700" type="line"/>
      <point x="604" y="700" type="line"/>
    </contour>
    <contour>
      <point x="304" y="0" type="line"/>
      <point x="369" y="0" type="line"/>
      <point x="76" y="700" type="line"/>
      <point x="10" y="700" type="line"/>
    </contour>
  </outline>
</glyph>
<glyph name="X" format="2">
  <advance width="589"/>
  <unicode hex="0058"/>
  <outline>
    <contour>
      <point x="10" y="0" type="line"/>
      <point x="88" y="0" type="line"/>
      <point x="313" y="330" type="line"/>
      <point x="579" y="700" type="line"/>
      <point x="503" y="700" type="line"/>
      <point x="280" y="385" type="line"/>
    </contour>
    <contour>
      <point x="501" y="0" type="line"/>
      <point x="579" y="0" type="line"/>
      <point x="309" y="385" type="line"/>
      <point x="86" y="700" type="line"/>
      <point x="10" y="700" type="line"/>
      <point x="276" y="330" type="line"/>
    </contour>
  </outline>
</glyph>
<glyph name="Y" format="2">
  <advance width="588"/>
  <unicode hex="0059"/>
  <anchor x="294" y="670" name="top"/>
  <outline>
    <contour>
      <point x="326" y="292" type="line"/>
      <point x="578" y="700" type="line"/>
      <point x="503" y="700" type="line"/>
      <point x="275" y="328" type="line"/>
    </contour>
    <contour>
      <point x="262" y="0" type="line"/>
      <point x="326" y="0" type="line"/>
      <point x="326" y="336" type="line"/>
      <point x="262" y="336" type="line"/>
    </contour>
    <contour>
      <point x="262" y="292" type="line"/>
      <point x="313" y="328" type="line"/>
      <point x="85" y="700" type="line"/>
      <point x="10" y="700" type="line"/>
    </contour>
  </outline>
</glyph>
<glyph name="Z" format="2">
  <advance width="644"/>
  <unicode hex="005A"/>
  <anchor x="323" y="670" name="top"/>
  <outline>
    <contour>
      <point x="50" y="0" type="line"/>
      <point x="591" y="0" type="line"/>
      <point x="591" y="58" type="line"/>
      <point x="129" y="58" type="line"/>
      <point x="594" y="642" type="line"/>
      <point x="594" y="700" type="line"/>
      <point x="53" y="700" type="line"/>
      <point x="53" y="642" type="line"/>
      <point x="515" y="642" type="line"/>
      <point x="50" y="58" type="line"/>
    </contour>
  </outline>
</glyph>
<glyph name="bracketleft" format="2">
  <advance width="316"/>
  <unicode hex="005B"/>
  <outline>
    <contour>
      <point x="100" y="-100" type="line"/>
      <point x="236" y="-100" type="line"/>
      <point x="236" y="-42" type="line"/>
      <point x="164" y="-42" type="line"/>
      <point x="164" y="742" type="line"/>
      <point x="236" y="742" type="line"/>
      <point x="236" y="800" type="line"/>
      <point x="100" y="800" type="line"/>
    </contour>
  </outline>
</glyph>
<glyph name="asciicircum" format="2">
  <advance width="539"/>
  <unicode hex="005E"/>
  <outline>
    <contour>
      <point x="397" y="373" type="line"/>
      <point x="459" y="373" type="line"/>
      <point x="302" y="700" type="line"/>
      <point x="235" y="700" type="line"/>
    </contour>
    <contour>
      <point x="80" y="373" type="line"/>
      <point x="143" y="373" type="line"/>
      <point x="301" y="700" type="line"/>
      <point x="235" y="700" type="line"/>
    </contour>
  </outline>
</glyph>
<glyph name="a" format="2">
  <advance width="501"/>
  <unicode hex="0061"/>
  <anchor x="246" y="0" name="bottom"/>
  <anchor x="441" y="0" name="ogonek"/>
  <anchor x="252" y="500" name="top"/>
  <outline>
    <contour>
      <point x="386" y="0" type="line"/>
      <point x="441" y="0" type="line"/>
      <point x="441" y="268" type="line" smooth="yes"/>
      <point x="441" y="432"/>
      <point x="376" y="512"/>
      <point x="242" y="512" type="curve" smooth="yes"/>
      <point x="162" y="512"/>
      <point x="103" y="478"/>
      <point x="62" y="407" type="curve"/>
      <point x="116" y="383" type="line"/>
      <point x="143" y="434"/>
      <point x="182" y="457"/>
      <point x="242" y="457" type="curve" smooth="yes"/>
      <point x="340" y="457"/>
      <point x="381" y="395"/>
      <point x="381" y="268" type="curve" smooth="yes"/>
      <point x="381" y="75" type="line"/>
    </contour>
    <contour>
      <point x="232" y="-12" type="curve" smooth="yes"/>
      <point x="348" y="-12"/>
      <point x="416" y="78"/>
      <point x="416" y="214" type="curve"/>
      <point x="381" y="214" type="line"/>
      <point x="381" y="102"/>
      <point x="324" y="43"/>
      <point x="228" y="43" type="curve" smooth="yes"/>
      <point x="150" y="43"/>
      <point x="105" y="80"/>
      <point x="105" y="141" type="curve"/>
      <point x="105" y="205"/>
      <point x="144" y="242"/>
      <point x="240" y="242" type="curve" smooth="yes"/>
      <point x="382" y="242" type="line"/>
      <point x="382" y="297" type="line"/>
      <point x="232" y="297" type="line" smooth="yes"/>
      <point x="114" y="297"/>
      <point x="45" y="239"/>
      <point x="45" y="141" type="curve"/>
      <point x="45" y="45"/>
      <point x="114" y="-12"/>
    </contour>
  </outline>
</glyph>
<glyph name="c" format="2">
  <advance width="539"/>
  <unicode hex="0063"/>
  <anchor x="291" y="0" name="bottom"/>
  <anchor x="289" y="500" name="top"/>
  <outline>
    <contour>
      <point x="291" y="-12" type="curve" smooth="yes"/>
      <point x="387" y="-12"/>
      <point x="464" y="38"/>
      <point x="504" y="119" type="curve"/>
      <point x="451" y="147" type="line"/>
      <point x="421" y="82"/>
      <point x="363" y="43"/>
      <point x="291" y="43" type="curve" smooth="yes"/>
      <point x="182" y="43"/>
      <point x="105" y="128"/>
      <point x="105" y="250" type="curve" smooth="yes"/>
      <point x="105" y="372"/>
      <point x="181" y="457"/>
      <point x="289" y="457" type="curve" smooth="yes"/>
      <point x="359" y="457"/>
      <point x="417" y="422"/>
      <point x="448" y="365" type="curve"/>
      <point x="500" y="393" type="line"/>
      <point x="460" y="467"/>
      <point x="383" y="512"/>
      <point x="289" y="512" type="curve" smooth="yes"/>
      <point x="146" y="512"/>
      <point x="45" y="404"/>
      <point x="45" y="250" type="curve" smooth="yes"/>
      <point x="45" y="96"/>
      <point x="147" y="-12"/>
    </contour>
  </outline>
</glyph>
<glyph name="e" format="2">
  <advance width="543"/>
  <unicode hex="0065"/>
  <anchor x="291" y="0" name="bottom"/>
  <anchor x="455" y="50" name="ogonek"/>
  <anchor x="286" y="500" name="top"/>
  <outline>
    <contour>
      <point x="291" y="-12" type="curve" smooth="yes"/>
      <point x="391" y="-12"/>
      <point x="465" y="40"/>
      <point x="503" y="114" type="curve"/>
      <point x="453" y="145" type="line"/>
      <point x="422" y="85"/>
      <point x="368" y="43"/>
      <point x="291" y="43" type="curve" smooth="yes"/>
      <point x="182" y="43"/>
      <point x="105" y="128"/>
      <point x="105" y="250" type="curve" smooth="yes"/>
      <point x="105" y="371"/>
      <point x="180" y="457"/>
      <point x="286" y="457" type="curve" smooth="yes"/>
      <point x="394" y="457"/>
      <point x="448" y="368"/>
      <point x="448" y="243" type="curve"/>
      <point x="508" y="243" type="line"/>
      <point x="508" y="400"/>
      <point x="428" y="512"/>
      <point x="286" y="512" type="curve" smooth="yes"/>
      <point x="145" y="512"/>
      <point x="45" y="403"/>
      <point x="45" y="250" type="curve" smooth="yes"/>
      <point x="45" y="96"/>
      <point x="147" y="-12"/>
    </contour>
    <contour>
      <point x="86" y="243" type="line"/>
      <point x="465" y="243" type="line"/>
      <point x="465" y="298" type="line"/>
      <point x="86" y="298" type="line"/>
    </contour>
  </outline>
</glyph>
<glyph name="g" format="2">
  <advance width="582"/>
  <unicode hex="0067"/>
  <anchor x="284" y="-200" name="bottom"/>
  <anchor x="271" y="500" name="top"/>
  <outline>
    <contour>
      <point x="266" y="-212" type="curve" smooth="yes"/>
      <point x="398" y="-212"/>
      <point x="507" y="-129"/>
      <point x="507" y="46" type="curve" smooth="yes"/>
      <point x="507" y="500" type="line"/>
      <point x="447" y="500" type="line"/>
      <point x="447" y="46" type="line" smooth="yes"/>
      <point x="447" y="-97"/>
      <point x="370" y="-157"/>
      <point x="266" y="-157" type="curve" smooth="yes"/>
      <point x="196" y="-157"/>
      <point x="128" y="-129"/>
      <point x="105" y="-114" type="curve"/>
      <point x="83" y="-164" type="line"/>
      <point x="103" y="-174"/>
      <point x="175" y="-212"/>
    </contour>
    <contour>
      <point x="271" y="0" type="curve" smooth="yes"/>
      <point x="398" y="0"/>
      <point x="487" y="107"/>
      <point x="487" y="258" type="curve" smooth="yes"/>
      <point x="487" y="407"/>
      <point x="398" y="512"/>
      <point x="271" y="512" type="curve" smooth="yes"/>
      <point x="139" y="512"/>
      <point x="45" y="407"/>
      <point x="45" y="258" type="curve" smooth="yes"/>
      <point x="45" y="107"/>
      <point x="139" y="0"/>
    </contour>
    <contour>
      <point x="283" y="53" type="curve" smooth="yes"/>
      <point x="179" y="53"/>
      <point x="105" y="138"/>
      <point x="105" y="258" type="curve" smooth="yes"/>
      <point x="105" y="376"/>
      <point x="178" y="460"/>
      <point x="282" y="460" type="curve" smooth="yes"/>
      <point x="379" y="460"/>
      <point x="447" y="376"/>
      <point x="447" y="258" type="curve" smooth="yes"/>
      <point x="447" y="138"/>
      <point x="379" y="53"/>
    </contour>
  </outline>
</glyph>
<glyph name="h" format="2">
  <advance width="554"/>
  <unicode hex="0068"/>
  <outline>
    <contour>
      <point x="75" y="0" type="line"/>
      <point x="135" y="0" type="line"/>
      <point x="135" y="716" type="line"/>
      <point x="75" y="716" type="line"/>
    </contour>
    <contour>
      <point x="434" y="0" type="line"/>
      <point x="494" y="0" type="line"/>
      <point x="494" y="286" type="line"/>
      <point x="434" y="256" type="line"/>
    </contour>
    <component base="arch" xOffset="98"/>
  </outline>
</glyph>
<glyph name="k" format="2">
  <advance width="465"/>
  <unicode hex="006B"/>
  <anchor x="241" y="0" name="bottom"/>
  <anchor x="233" y="800" name="top"/>
  <outline>
    <contour>
      <point x="135" y="174" type="line"/>
      <point x="443" y="500" type="line"/>
      <point x="365" y="500" type="line"/>
      <point x="94" y="215" type="line"/>
    </contour>
    <contour>
      <point x="75" y="0" type="line"/>
      <point x="135" y="0" type="line"/>
      <point x="135" y="700" type="line"/>
      <point x="75" y="700" type="line"/>
    </contour>
    <contour>
      <point x="388" y="0" type="line"/>
      <point x="465" y="0" type="line"/>
      <point x="228" y="347" type="line"/>
      <point x="189" y="304" type="line"/>
    </contour>
  </outline>
</glyph>
<glyph name="l" format="2">
  <advance width="210"/>
  <unicode hex="006C"/>
  <anchor x="105" y="0" name="bottom"/>
  <anchor x="105" y="670" name="top"/>
  <anchor x="137" y="700" name="top_caron"/>
  <outline>
    <contour>
      <point x="75" y="0" type="line"/>
      <point x="135" y="0" type="line"/>
      <point x="135" y="700" type="line"/>
      <point x="75" y="700" type="line"/>
    </contour>
  </outline>
</glyph>
<glyph name="m" format="2">
  <advance width="913"/>
  <unicode hex="006D"/>
  <outline>
    <contour>
      <point x="75" y="0" type="line"/>
      <point x="135" y="0" type="line"/>
      <point x="135" y="408" type="line"/>
      <point x="131" y="500" type="line"/>
      <point x="75" y="500" type="line"/>
    </contour>
    <contour>
      <point x="434" y="0" type="line"/>
      <point x="494" y="0" type="line"/>
      <point x="494" y="286" type="line"/>
      <point x="434" y="256" type="line"/>
    </contour>
    <contour>
      <point x="793" y="0" type="line"/>
      <point x="853" y="0" type="line"/>
      <point x="853" y="286" type="line"/>
      <point x="793" y="256" type="line"/>
    </contour>
    <component base="arch" xOffset="98"/>
    <component base="arch" xOffset="457"/>
  </outline>
</glyph>
<glyph name="n" format="2">
  <advance width="554"/>
  <unicode hex="006E"/>
  <anchor x="277" y="0" name="bottom"/>
  <anchor x="277" y="500" name="top"/>
  <outline>
    <contour>
      <point x="75" y="0" type="line"/>
      <point x="135" y="0" type="line"/>
      <point x="135" y="408" type="line"/>
      <point x="131" y="500" type="line"/>
      <point x="75" y="500" type="line"/>
    </contour>
    <contour>
      <point x="434" y="0" type="line"/>
      <point x="494" y="0" type="line"/>
      <point x="494" y="256" type="line"/>
      <point x="434" y="256" type="line"/>
    </contour>
    <component base="arch" xOffset="98"/>
  </outline>
</glyph>
<glyph name="o" format="2">
  <advance width="579"/>
  <unicode hex="006F"/>
  <anchor x="290" y="0" name="bottom"/>
  <anchor x="290" y="250" name="center"/>
  <anchor x="521" y="10" name="ogonek"/>
  <anchor x="290" y="500" name="top"/>
  <anchor x="559" y="500" name="topright"/>
  <outline>
    <contour>
      <point x="291" y="-12" type="curve" smooth="yes"/>
      <point x="433" y="-12"/>
      <point x="534" y="96"/>
      <point x="534" y="250" type="curve" smooth="yes"/>
      <point x="534" y="404"/>
      <point x="433" y="512"/>
      <point x="289" y="512" type="curve" smooth="yes"/>
      <point x="146" y="512"/>
      <point x="45" y="404"/>
      <point x="45" y="250" type="curve" smooth="yes"/>
      <point x="45" y="96"/>
      <point x="147" y="-12"/>
    </contour>
    <contour>
      <point x="291" y="43" type="curve" smooth="yes"/>
      <point x="182" y="43"/>
      <point x="105" y="128"/>
      <point x="105" y="250" type="curve" smooth="yes"/>
      <point x="105" y="372"/>
      <point x="181" y="457"/>
      <point x="289" y="457" type="curve" smooth="yes"/>
      <point x="397" y="457"/>
      <point x="474" y="372"/>
      <point x="474" y="250" type="curve" smooth="yes"/>
      <point x="474" y="128"/>
      <point x="398" y="43"/>
    </contour>
  </outline>
</glyph>
<glyph name="q" format="2">
  <advance width="572"/>
  <unicode hex="0071"/>
  <outline>
    <contour>
      <point x="447" y="-200" type="line"/>
      <point x="507" y="-200" type="line"/>
      <point x="507" y="500" type="line"/>
      <point x="450" y="500" type="line"/>
      <point x="447" y="407" type="line"/>
    </contour>
    <component base="Bowl"/>
  </outline>
</glyph>
<glyph name="r" format="2">
  <advance width="322"/>
  <unicode hex="0072"/>
  <anchor x="127" y="0" name="bottom"/>
  <anchor x="155" y="500" name="top"/>
  <outline>
    <contour>
      <point x="100" y="274" type="curve"/>
      <point x="135" y="280" type="line"/>
      <point x="135" y="405"/>
      <point x="224" y="447"/>
      <point x="312" y="447" type="curve"/>
      <point x="312" y="502" type="line"/>
      <point x="204" y="502"/>
      <point x="100" y="436"/>
    </contour>
    <contour>
      <point x="75" y="0" type="line"/>
      <point x="135" y="0" type="line"/>
      <point x="135" y="500" type="line"/>
      <point x="75" y="500" type="line"/>
    </contour>
  </outline>
</glyph>
<glyph name="s" format="2">
  <advance width="466"/>
  <unicode hex="0073"/>
  <anchor x="245" y="0" name="bottom"/>
  <anchor x="248" y="500" name="top"/>
  <outline>
    <contour>
      <point x="245" y="-12" type="curve" smooth="yes"/>
      <point x="346" y="-12"/>
      <point x="421" y="41"/>
      <point x="421" y="132" type="curve" smooth="yes"/>
      <point x="421" y="201"/>
      <point x="364" y="257"/>
      <point x="266" y="282" type="curve" smooth="yes"/>
      <point x="223" y="293" type="line" smooth="yes"/>
      <point x="158" y="310"/>
      <point x="125" y="341"/>
      <point x="125" y="371" type="curve" smooth="yes"/>
      <point x="125" y="425"/>
      <point x="168" y="457"/>
      <point x="239" y="457" type="curve" smooth="yes"/>
      <point x="306" y="457"/>
      <point x="346" y="438"/>
      <point x="367" y="386" type="curve"/>
      <point x="421" y="409" type="line"/>
      <point x="396" y="473"/>
      <point x="334" y="512"/>
      <point x="248" y="512" type="curve" smooth="yes"/>
      <point x="125" y="512"/>
      <point x="65" y="458"/>
      <point x="65" y="366" type="curve" smooth="yes"/>
      <point x="65" y="308"/>
      <point x="116" y="260"/>
      <point x="205" y="236" type="curve" smooth="yes"/>
      <point x="254" y="223" type="line" smooth="yes"/>
      <point x="325" y="204"/>
      <point x="361" y="175"/>
      <point x="361" y="127" type="curve" smooth="yes"/>
      <point x="361" y="73"/>
      <point x="304" y="43"/>
      <point x="234" y="43" type="curve" smooth="yes"/>
      <point x="177" y="43"/>
      <point x="121" y="75"/>
      <point x="99" y="125" type="curve"/>
      <point x="45" y="105" type="line"/>
      <point x="65" y="47"/>
      <point x="131" y="-12"/>
    </contour>
  </outline>
</glyph>
<glyph name="t" format="2">
  <advance width="372"/>
  <unicode hex="0074"/>
  <anchor x="214" y="0" name="bottom"/>
  <anchor x="184" y="250" name="center"/>
  <anchor x="184" y="500" name="top"/>
  <anchor x="203" y="726" name="top_caron"/>
  <anchor x="352" y="800" name="topright"/>
  <outline>
    <contour>
      <point x="261" y="-12" type="curve" smooth="yes"/>
      <point x="286" y="-12"/>
      <point x="307" y="-8"/>
      <point x="343" y="13" type="curve"/>
      <point x="318" y="65" type="line"/>
      <point x="288" y="45"/>
      <point x="277" y="43"/>
      <point x="261" y="43" type="curve" smooth="yes"/>
      <point x="206" y="43"/>
      <point x="174" y="74"/>
      <point x="174" y="128" type="curve" smooth="yes"/>
      <point x="174" y="656" type="line"/>
      <point x="114" y="656" type="line"/>
      <point x="114" y="128" type="line" smooth="yes"/>
      <point x="114" y="39"/>
      <point x="169" y="-12"/>
    </contour>
    <contour>
      <point x="25" y="445" type="line"/>
      <point x="333" y="445" type="line"/>
      <point x="333" y="500" type="line"/>
      <point x="25" y="500" type="line"/>
    </contour>
  </outline>
</glyph>
<glyph name="u" format="2">
  <advance width="554"/>
  <unicode hex="0075"/>
  <anchor x="277" y="0" name="bottom"/>
  <anchor x="479" y="0" name="ogonek"/>
  <anchor x="277" y="500" name="top"/>
  <anchor x="534" y="500" name="topright"/>
  <outline>
    <contour>
      <point x="423" y="0" type="line"/>
      <point x="479" y="0" type="line"/>
      <point x="479" y="500" type="line"/>
      <point x="419" y="500" type="line"/>
      <point x="419" y="92" type="line"/>
    </contour>
    <contour>
      <point x="60" y="244" type="line"/>
      <point x="120" y="244" type="line"/>
      <point x="120" y="500" type="line"/>
      <point x="60" y="500" type="line"/>
    </contour>
    <component base="arch" xScale="-1.0" yScale="-1.0" xOffset="456" yOffset="500"/>
  </outline>
</glyph>
<glyph name="v" format="2">
  <advance width="506"/>
  <unicode hex="0076"/>
  <outline>
    <contour>
      <point x="223" y="0" type="line"/>
      <point x="285" y="0" type="line"/>
      <point x="496" y="500" type="line"/>
      <point x="433" y="500" type="line"/>
    </contour>
    <contour>
      <point x="221" y="0" type="line"/>
      <point x="282" y="0" type="line"/>
      <point x="72" y="500" type="line"/>
      <point x="10" y="500" type="line"/>
    </contour>
  </outline>
</glyph>
<glyph name="w" format="2">
  <advance width="764"/>
  <unicode hex="0077"/>
  <anchor x="383" y="500" name="top"/>
  <outline>
    <contour>
      <point x="523" y="0" type="line"/>
      <point x="584" y="0" type="line"/>
      <point x="754" y="500" type="line"/>
      <point x="694" y="500" type="line"/>
    </contour>
    <contour>
      <point x="181" y="0" type="line"/>
      <point x="242" y="0" type="line"/>
      <point x="413" y="500" type="line"/>
      <point x="353" y="500" type="line"/>
    </contour>
    <contour>
      <point x="180" y="0" type="line"/>
      <point x="241" y="0" type="line"/>
      <point x="70" y="500" type="line"/>
      <point x="10" y="500" type="line"/>
    </contour>
    <contour>
      <point x="523" y="0" type="line"/>
      <point x="584" y="0" type="line"/>
      <point x="413" y="500" type="line"/>
      <point x="353" y="500" type="line"/>
    </contour>
  </outline>
</glyph>
<glyph name="x" format="2">
  <advance width="452"/>
  <unicode hex="0078"/>
  <outline>
    <contour>
      <point x="10" y="0" type="line"/>
      <point x="84" y="0" type="line"/>
      <point x="243" y="233" type="line"/>
      <point x="430" y="500" type="line"/>
      <point x="358" y="500" type="line"/>
      <point x="214" y="288" type="line"/>
    </contour>
    <contour>
      <point x="369" y="0" type="line"/>
      <point x="442" y="0" type="line"/>
      <point x="240" y="288" type="line"/>
      <point x="95" y="500" type="line"/>
      <point x="23" y="500" type="line"/>
      <point x="212" y="233" type="line"/>
    </contour>
  </outline>
</glyph>
<glyph name="z" format="2">
  <advance width="497"/>
  <unicode hex="007A"/>
  <anchor x="247" y="500" name="top"/>
  <outline>
    <contour>
      <point x="101" y="20" type="line"/>
      <point x="444" y="451" type="line"/>
      <point x="394" y="483" type="line"/>
      <point x="50" y="52" type="line"/>
    </contour>
    <contour>
      <point x="50" y="0" type="line"/>
      <point x="447" y="0" type="line"/>
      <point x="447" y="55" type="line"/>
      <point x="93" y="55" type="line"/>
      <point x="50" y="52" type="line"/>
    </contour>
    <contour>
      <point x="50" y="445" type="line"/>
      <point x="402" y="445" type="line"/>
      <point x="444" y="451" type="line"/>
      <point x="444" y="500" type="line"/>
      <point x="50" y="500" type="line"/>
    </contour>
  </outline>
</glyph>
<glyph name="braceleft" format="2">
  <advance width="382"/>
  <unicode hex="007B"/>
  <outline>
    <contour>
      <point x="60" y="339" type="line"/>
      <point x="191" y="339"/>
      <point x="224" y="374"/>
      <point x="224" y="513" type="curve" smooth="yes"/>
      <point x="224" y="694"/>
      <point x="244" y="740"/>
      <point x="322" y="742" type="curve"/>
      <point x="322" y="800" type="line"/>
      <point x="192" y="800"/>
      <point x="160" y="742"/>
      <point x="160" y="512" type="curve" smooth="yes"/>
      <point x="160" y="402"/>
      <point x="140" y="375"/>
      <point x="60" y="375" type="curve"/>
    </contour>
    <contour>
      <point x="322" y="-100" type="curve"/>
      <point x="322" y="-42" type="line"/>
      <point x="244" y="-40"/>
      <point x="224" y="6"/>
      <point x="224" y="187" type="curve" smooth="yes"/>
      <point x="224" y="326"/>
      <point x="191" y="361"/>
      <point x="60" y="361" type="curve"/>
      <point x="60" y="325" type="line"/>
      <point x="140" y="325"/>
      <point x="160" y="298"/>
      <point x="160" y="188" type="curve" smooth="yes"/>
      <point x="160" y="-42"/>
      <point x="192" y="-100"/>
    </contour>
  </outline>
</glyph>
<glyph name="asciitilde" format="2">
  <advance width="529"/>
  <unicode hex="007E"/>
  <outline>
    <contour>
      <point x="351" y="237" type="curve" smooth="yes"/>
      <point x="420" y="237"/>
      <point x="461" y="296"/>
      <point x="469" y="368" type="curve"/>
      <point x="414" y="368" type="line"/>
      <point x="406" y="324"/>
      <point x="387" y="294"/>
      <point x="351" y="294" type="curve" smooth="yes"/>
      <point x="327" y="294"/>
      <point x="302" y="322"/>
      <point x="284" y="341" type="curve" smooth="yes"/>
      <point x="257" y="370"/>
      <point x="221" y="396"/>
      <point x="177" y="396" type="curve" smooth="yes"/>
      <point x="109" y="396"/>
      <point x="65" y="335"/>
      <point x="60" y="265" type="curve"/>
      <point x="114" y="265" type="line"/>
      <point x="123" y="310"/>
      <point x="142" y="339"/>
      <point x="177" y="339" type="curve" smooth="yes"/>
      <point x="195" y="339"/>
      <point x="215" y="326"/>
      <point x="247" y="290" type="curve" smooth="yes"/>
      <point x="274" y="259"/>
      <point x="302" y="237"/>
    </contour>
  </outline>
</glyph>
<glyph name="cent" format="2">
  <advance width="534"/>
  <unicode hex="00A2"/>
  <anchor x="291" y="110" name="bottom"/>
  <anchor x="289" y="610" name="top"/>
  <outline>
    <contour>
      <point x="260" y="0" type="line"/>
      <point x="315" y="0" type="line"/>
      <point x="315" y="700" type="line"/>
      <point x="260" y="700" type="line"/>
    </contour>
    <component base="c" yOffset="110"/>
  </outline>
</glyph>
<glyph name="currency" format="2">
  <advance width="538"/>
  <unicode hex="00A4"/>
  <outline>
    <contour>
      <point x="272" y="189" type="curve" smooth="yes"/>
      <point x="361" y="189"/>
      <point x="434" y="264"/>
      <point x="434" y="350" type="curve" smooth="yes"/>
      <point x="434" y="434"/>
      <point x="361" y="506"/>
      <point x="272" y="506" type="curve" smooth="yes"/>
      <point x="183" y="506"/>
      <point x="111" y="434"/>
      <point x="111" y="350" type="curve" smooth="yes"/>
      <point x="111" y="264"/>
      <point x="182" y="189"/>
    </contour>
    <contour>
      <point x="119" y="162" type="line"/>
      <point x="192" y="234" type="line"/>
      <point x="151" y="272" type="line"/>
      <point x="80" y="201" type="line"/>
    </contour>
    <contour>
      <point x="272" y="243" type="curve" smooth="yes"/>
      <point x="210" y="243"/>
      <point x="171" y="284"/>
      <point x="171" y="350" type="curve" smooth="yes"/>
      <point x="171" y="413"/>
      <point x="210" y="452"/>
      <point x="272" y="452" type="curve" smooth="yes"/>
      <point x="335" y="452"/>
      <point x="374" y="413"/>
      <point x="374" y="350" type="curve" smooth="yes"/>
      <point x="374" y="284"/>
      <point x="334" y="243"/>
    </contour>
    <contour>
      <point x="152" y="429" type="line"/>
      <point x="192" y="468" type="line"/>
      <point x="119" y="540" type="line"/>
      <point x="80" y="500" type="line"/>
    </contour>
    <contour>
      <point x="418" y="162" type="line"/>
      <point x="458" y="201" type="line"/>
      <point x="400" y="261" type="line"/>
      <point x="360" y="222" type="line"/>
    </contour>
    <contour>
      <point x="392" y="435" type="line"/>
      <point x="458" y="500" type="line"/>
      <point x="418" y="540" type="line"/>
      <point x="351" y="473" type="line"/>
    </contour>
  </outline>
</glyph>
<glyph name="yen" format="2">
  <advance width="522"/>
  <unicode hex="00A5"/>
  <outline>
    <contour>
      <point x="293" y="296" type="line"/>
      <point x="512" y="712" type="line"/>
      <point x="441" y="712" type="line"/>
      <point x="242" y="328" type="line"/>
    </contour>
    <contour>
      <point x="229" y="0" type="line"/>
      <point x="293" y="0" type="line"/>
      <point x="293" y="336" type="line"/>
      <point x="229" y="336" type="line"/>
    </contour>
    <contour>
      <point x="91" y="194" type="line"/>
      <point x="431" y="194" type="line"/>
      <point x="431" y="246" type="line"/>
      <point x="91" y="246" type="line"/>
    </contour>
    <contour>
      <point x="91" y="296" type="line"/>
      <point x="431" y="296" type="line"/>
      <point x="431" y="348" type="line"/>
      <point x="91" y="348" type="line"/>
    </contour>
    <contour>
      <point x="229" y="296" type="line"/>
      <point x="280" y="328" type="line"/>
      <point x="81" y="712" type="line"/>
      <point x="10" y="712" type="line"/>
    </contour>
  </outline>
</glyph>
<glyph name="section" format="2">
  <advance width="588"/>
  <unicode hex="00A7"/>
  <outline>
    <contour>
      <point x="302" y="-90" type="curve" smooth="yes"/>
      <point x="425" y="-90"/>
      <point x="488" y="-23"/>
      <point x="488" y="61" type="curve" smooth="yes"/>
      <point x="488" y="125"/>
      <point x="431" y="186"/>
      <point x="328" y="211" type="curve" smooth="yes"/>
      <point x="270" y="225" type="line" smooth="yes"/>
      <point x="219" y="237"/>
      <point x="185" y="262"/>
      <point x="185" y="311" type="curve" smooth="yes"/>
      <point x="185" y="366"/>
      <point x="224" y="402"/>
      <point x="287" y="402" type="curve" smooth="yes"/>
      <point x="344" y="402"/>
      <point x="407" y="371"/>
      <point x="427" y="322" type="curve"/>
      <point x="477" y="340" type="line"/>
      <point x="459" y="400"/>
      <point x="401" y="459"/>
      <point x="302" y="459" type="curve" smooth="yes"/>
      <point x="185" y="459"/>
      <point x="120" y="402"/>
      <point x="120" y="306" type="curve" smooth="yes"/>
      <point x="120" y="228"/>
      <point x="179" y="184"/>
      <point x="252" y="166" type="curve" smooth="yes"/>
      <point x="310" y="152" type="line" smooth="yes"/>
      <point x="378" y="136"/>
      <point x="423" y="105"/>
      <point x="423" y="56" type="curve" smooth="yes"/>
      <point x="423" y="3"/>
      <point x="374" y="-33"/>
      <point x="292" y="-33" type="curve" smooth="yes"/>
      <point x="225" y="-33"/>
      <point x="177" y="5"/>
      <point x="161" y="50" type="curve"/>
      <point x="100" y="28" type="line"/>
      <point x="120" y="-33"/>
      <point x="186" y="-90"/>
    </contour>
    <contour>
      <point x="297" y="163" type="curve" smooth="yes"/>
      <point x="420" y="163"/>
      <point x="483" y="230"/>
      <point x="483" y="314" type="curve" smooth="yes"/>
      <point x="483" y="378"/>
      <point x="427" y="440"/>
      <point x="323" y="465" type="curve" smooth="yes"/>
      <point x="265" y="479" type="line" smooth="yes"/>
      <point x="214" y="491"/>
      <point x="180" y="515"/>
      <point x="180" y="564" type="curve" smooth="yes"/>
      <point x="180" y="619"/>
      <point x="222" y="655"/>
      <point x="291" y="655" type="curve" smooth="yes"/>
      <point x="356" y="655"/>
      <point x="403" y="624"/>
      <point x="422" y="575" type="curve"/>
      <point x="482" y="596" type="line"/>
      <point x="463" y="654"/>
      <point x="401" y="712"/>
      <point x="297" y="712" type="curve" smooth="yes"/>
      <point x="180" y="712"/>
      <point x="115" y="655"/>
      <point x="115" y="559" type="curve" smooth="yes"/>
      <point x="115" y="481"/>
      <point x="174" y="439"/>
      <point x="247" y="420" type="curve" smooth="yes"/>
      <point x="305" y="405" type="line" smooth="yes"/>
      <point x="373" y="387"/>
      <point x="418" y="358"/>
      <point x="418" y="309" type="curve" smooth="yes"/>
      <point x="418" y="258"/>
      <point x="374" y="223"/>
      <point x="299" y="223" type="curve" smooth="yes"/>
      <point x="226" y="223"/>
      <point x="174" y="260"/>
      <point x="156" y="303" type="curve"/>
      <point x="122" y="286" type="line"/>
      <point x="140" y="223"/>
      <point x="197" y="163"/>
    </contour>
  </outline>
</glyph>
<glyph name="logicalnot" format="2">
  <advance width="620"/>
  <unicode hex="00AC"/>
  <outline>
    <contour>
      <point x="130" y="299" type="line"/>
      <point x="490" y="299" type="line"/>
      <point x="490" y="356" type="line"/>
      <point x="130" y="356" type="line"/>
    </contour>
    <contour>
      <point x="433" y="201" type="line"/>
      <point x="490" y="201" type="line"/>
      <point x="490" y="356" type="line"/>
      <point x="433" y="356" type="line"/>
    </contour>
  </outline>
</glyph>
<glyph name="registered" format="2">
  <advance width="626"/>
  <unicode hex="00AE"/>
  <outline>
    <contour>
      <point x="313" y="176" type="curve" smooth="yes"/>
      <point x="461" y="176"/>
      <point x="581" y="296"/>
      <point x="581" y="444" type="curve" smooth="yes"/>
      <point x="581" y="592"/>
      <point x="461" y="712"/>
      <point x="313" y="712" type="curve" smooth="yes"/>
      <point x="165" y="712"/>
      <point x="45" y="592"/>
      <point x="45" y="444" type="curve" smooth="yes"/>
      <point x="45" y="296"/>
      <point x="165" y="176"/>
    </contour>
    <contour>
      <point x="313" y="228" type="curve" smooth="yes"/>
      <point x="188" y="228"/>
      <point x="99" y="317"/>
      <point x="99" y="444" type="curve" smooth="yes"/>
      <point x="99" y="571"/>
      <point x="188" y="660"/>
      <point x="313" y="660" type="curve" smooth="yes"/>
      <point x="438" y="660"/>
      <point x="527" y="571"/>
      <point x="527" y="444" type="curve" smooth="yes"/>
      <point x="527" y="317"/>
      <point x="438" y="228"/>
    </contour>
    <contour>
      <point x="213" y="301" type="line"/>
      <point x="260" y="301" type="line"/>
      <point x="260" y="409" type="line"/>
      <point x="313" y="409" type="line"/>
      <point x="375" y="301" type="line"/>
      <point x="428" y="301" type="line"/>
      <point x="358" y="418" type="line"/>
      <point x="393" y="432"/>
      <point x="416" y="463"/>
      <point x="416" y="501" type="curve" smooth="yes"/>
      <point x="416" y="555"/>
      <point x="374" y="593"/>
      <point x="315" y="593" type="curve" smooth="yes"/>
      <point x="213" y="593" type="line"/>
    </contour>
    <contour>
      <point x="260" y="453" type="line"/>
      <point x="260" y="550" type="line"/>
      <point x="313" y="550" type="line" smooth="yes"/>
      <point x="346" y="550"/>
      <point x="368" y="530"/>
      <point x="368" y="501" type="curve" smooth="yes"/>
      <point x="368" y="473"/>
      <point x="346" y="453"/>
      <point x="318" y="453" type="curve" smooth="yes"/>
    </contour>
  </outline>
</glyph>
<glyph name="plusminus" format="2">
  <advance width="620"/>
  <unicode hex="00B1"/>
  <outline>
    <contour>
      <point x="85" y="314" type="line"/>
      <point x="535" y="314" type="line"/>
      <point x="535" y="371" type="line"/>
      <point x="85" y="371" type="line"/>
    </contour>
    <contour>
      <point x="85" y="0" type="line"/>
      <point x="535" y="0" type="line"/>
      <point x="535" y="51" type="line"/>
      <point x="85" y="51" type="line"/>
    </contour>
    <contour>
      <point x="282" y="139" type="line"/>
      <point x="339" y="139" type="line"/>
      <point x="339" y="547" type="line"/>
      <point x="282" y="547" type="line"/>
    </contour>
  </outline>
</glyph>
<glyph name="micro" format="2">
  <advance width="554"/>
  <unicode hex="00B5"/>
  <outline>
    <contour>
      <point x="258" y="-12" type="curve" smooth="yes"/>
      <point x="387" y="-12"/>
      <point x="456" y="83"/>
      <point x="456" y="243" type="curve"/>
      <point x="419" y="243" type="line"/>
      <point x="419" y="118"/>
      <point x="363" y="44"/>
      <point x="268" y="44" type="curve" smooth="yes"/>
      <point x="185" y="44"/>
      <point x="120" y="78"/>
      <point x="120" y="244" type="curve"/>
      <point x="80" y="214" type="line"/>
      <point x="79" y="62"/>
      <point x="150" y="-12"/>
    </contour>
    <contour>
      <point x="60" y="-200" type="line"/>
      <point x="120" y="-200" type="line"/>
      <point x="120" y="72" type="line"/>
      <point x="120" y="74" type="line"/>
      <point x="120" y="500" type="line"/>
      <point x="60" y="500" type="line"/>
    </contour>
    <contour>
      <point x="423" y="0" type="line"/>
      <point x="479" y="0" type="line"/>
      <point x="479" y="500" type="line"/>
      <point x="419" y="500" type="line"/>
      <point x="419" y="92" type="line"/>
    </contour>
  </outline>
</glyph>
<glyph name="paragraph" format="2">
  <advance width="531"/>
  <unicode hex="00B6"/>
  <outline>
    <contour>
      <point x="228" y="266" type="curve" smooth="yes"/>
      <point x="286" y="266" type="line"/>
      <point x="286" y="700" type="line"/>
      <point x="228" y="700" type="line" smooth="yes"/>
      <point x="112" y="700"/>
      <point x="30" y="611"/>
      <point x="30" y="483" type="curve" smooth="yes"/>
      <point x="30" y="356"/>
      <point x="112" y="266"/>
    </contour>
    <contour>
      <point x="253" y="-84" type="line"/>
      <point x="317" y="-84" type="line"/>
      <point x="317" y="700" type="line"/>
      <point x="253" y="700" type="line"/>
    </contour>
    <contour>
      <point x="367" y="-84" type="line"/>
      <point x="431" y="-84" type="line"/>
      <point x="431" y="700" type="line"/>
      <point x="367" y="700" type="line"/>
    </contour>
    <contour>
      <point x="317" y="642" type="line"/>
      <point x="377" y="642" type="line"/>
      <point x="377" y="700" type="line"/>
      <point x="317" y="700" type="line"/>
    </contour>
  </outline>
</glyph>
<glyph name="ordmasculine" format="2">
  <advance width="366"/>
  <unicode hex="00BA"/>
  <anchor x="182" y="400" name="bottom"/>
  <anchor x="182" y="550" name="center"/>
  <anchor x="323" y="406" name="ogonek"/>
  <anchor x="182" y="700" name="top"/>
  <anchor x="346" y="700" name="topright"/>
  <outline>
    <contour>
      <point x="184" y="393" type="curve" smooth="yes"/>
      <point x="272" y="393"/>
      <point x="335" y="458"/>
      <point x="335" y="550" type="curve" smooth="yes"/>
      <point x="335" y="642"/>
      <point x="272" y="707"/>
      <point x="183" y="707" type="curve" smooth="yes"/>
      <point x="94" y="707"/>
      <point x="31" y="642"/>
      <point x="31" y="550" type="curve" smooth="yes"/>
      <point x="31" y="458"/>
      <point x="94" y="393"/>
    </contour>
    <contour>
      <point x="184" y="448" type="curve" smooth="yes"/>
      <point x="130" y="448"/>
      <point x="92" y="490"/>
      <point x="92" y="550" type="curve" smooth="yes"/>
      <point x="92" y="610"/>
      <point x="130" y="652"/>
      <point x="183" y="652" type="curve" smooth="yes"/>
      <point x="236" y="652"/>
      <point x="274" y="610"/>
      <point x="274" y="550" type="curve" smooth="yes"/>
      <point x="274" y="490"/>
      <point x="237" y="448"/>
    </contour>
  </outline>
</glyph>
<glyph name="AE" format="2">
  <advance width="995"/>
  <unicode hex="00C6"/>
  <outline>
    <contour>
      <point x="10" y="0" type="line"/>
      <point x="82" y="0" type="line"/>
      <point x="518" y="700" type="line"/>
      <point x="448" y="700" type="line"/>
    </contour>
    <contour>
      <point x="196" y="217" type="line"/>
      <point x="516" y="217" type="line"/>
      <point x="516" y="275" type="line"/>
      <point x="196" y="275" type="line"/>
    </contour>
    <contour>
      <point x="502" y="0" type="line"/>
      <point x="566" y="0" type="line"/>
      <point x="566" y="700" type="line"/>
      <point x="502" y="700" type="line"/>
    </contour>
    <contour>
      <point x="566" y="0" type="line"/>
      <point x="905" y="0" type="line"/>
      <point x="905" y="58" type="line"/>
      <point x="566" y="58" type="line"/>
    </contour>
    <contour>
      <point x="566" y="332" type="line"/>
      <point x="881" y="332" type="line"/>
      <point x="881" y="390" type="line"/>
      <point x="566" y="390" type="line"/>
    </contour>
    <contour>
      <point x="453" y="642" type="line"/>
      <point x="905" y="642" type="line"/>
      <point x="905" y="700" type="line"/>
      <point x="453" y="700" type="line"/>
    </contour>
  </outline>
</glyph>
<glyph name="Idieresis" format="2">
  <advance width="264"/>
  <unicode hex="00CF"/>
  <anchor x="132" y="670" name="_top"/>
  <anchor x="132" y="880" name="top"/>
  <anchor x="132" y="0" name="bottom"/>
  <anchor x="164" y="0" name="ogonek"/>
  <anchor x="20" y="700" name="topleft"/>
  <outline>
    <contour>
      <point x="193" y="800" type="curve" smooth="yes"/>
      <point x="215" y="800"/>
      <point x="233" y="818"/>
      <point x="233" y="840" type="curve" smooth="yes"/>
      <point x="233" y="862"/>
      <point x="215" y="880"/>
      <point x="193" y="880" type="curve" smooth="yes"/>
      <point x="171" y="880"/>
      <point x="153" y="862"/>
      <point x="153" y="840" type="curve" smooth="yes"/>
      <point x="153" y="818"/>
      <point x="171" y="800"/>
    </contour>
    <contour>
      <point x="72" y="800" type="curve" smooth="yes"/>
      <point x="94" y="800"/>
      <point x="112" y="818"/>
      <point x="112" y="840" type="curve" smooth="yes"/>
      <point x="112" y="862"/>
      <point x="94" y="880"/>
      <point x="72" y="880" type="curve" smooth="yes"/>
      <point x="50" y="880"/>
      <point x="32" y="862"/>
      <point x="32" y="840" type="curve" smooth="yes"/>
      <point x="32" y="818"/>
      <point x="50" y="800"/>
    </contour>
    <component base="I"/>
  </outline>
</glyph>
<glyph name="Eth" format="2">
  <advance width="753"/>
  <unicode hex="00D0"/>
  <anchor x="378" y="670" name="top"/>
  <outline>
    <contour>
      <point x="80" y="320" type="line"/>
      <point x="395" y="320" type="line"/>
      <point x="395" y="378" type="line"/>
      <point x="80" y="378" type="line"/>
    </contour>
    <component base="D" xOffset="70"/>
  </outline>
</glyph>
<glyph name="multiply" format="2">
  <advance width="578"/>
  <unicode hex="00D7"/>
  <outline>
    <contour>
      <point x="438" y="109" type="line"/>
      <point x="478" y="148" type="line"/>
      <point x="139" y="487" type="line"/>
      <point x="100" y="447" type="line"/>
    </contour>
    <contour>
      <point x="139" y="109" type="line"/>
      <point x="478" y="447" type="line"/>
      <point x="438" y="487" type="line"/>
      <point x="100" y="148" type="line"/>
    </contour>
  </outline>
</glyph>
<glyph name="Oslash" format="2">
  <advance width="781"/>
  <unicode hex="00D8"/>
  <anchor x="394" y="0" name="bottom"/>
  <anchor x="391" y="350" name="center"/>
  <anchor x="700" y="10" name="ogonek"/>
  <anchor x="391" y="670" name="top"/>
  <anchor x="25" y="700" name="topleft"/>
  <anchor x="757" y="700" name="topright"/>
  <outline>
    <contour>
      <point x="45" y="0" type="line"/>
      <point x="123" y="0" type="line"/>
      <point x="736" y="700" type="line"/>
      <point x="657" y="700" type="line"/>
    </contour>
    <component base="O" xOffset="5"/>
  </outline>
</glyph>
<glyph name="Thorn" format="2">
  <advance width="570"/>
  <unicode hex="00DE"/>
  <outline>
    <contour>
      <point x="164" y="145" type="line"/>
      <point x="342" y="145" type="line" smooth="yes"/>
      <point x="458" y="145"/>
      <point x="540" y="235"/>
      <point x="540" y="362" type="curve" smooth="yes"/>
      <point x="540" y="490"/>
      <point x="447" y="579"/>
      <point x="315" y="579" type="curve" smooth="yes"/>
      <point x="164" y="579" type="line"/>
      <point x="164" y="521" type="line"/>
      <point x="315" y="521" type="line" smooth="yes"/>
      <point x="410" y="521"/>
      <point x="477" y="456"/>
      <point x="477" y="362" type="curve" smooth="yes"/>
      <point x="477" y="269"/>
      <point x="421" y="204"/>
      <point x="342" y="204" type="curve" smooth="yes"/>
      <point x="164" y="204" type="line"/>
    </contour>
    <contour>
      <point x="100" y="1" type="line"/>
      <point x="164" y="1" type="line"/>
      <point x="164" y="701" type="line"/>
      <point x="100" y="701" type="line"/>
    </contour>
  </outline>
</glyph>
<glyph name="germandbls" format="2">
  <advance width="555"/>
  <unicode hex="00DF"/>
  <outline>
    <contour>
      <point x="75" y="0" type="line"/>
      <point x="139" y="0" type="line"/>
      <point x="139" y="519" type="line" smooth="yes"/>
      <point x="139" y="598"/>
      <point x="198" y="654"/>
      <point x="281" y="654" type="curve" smooth="yes"/>
      <point x="364" y="654"/>
      <point x="422" y="599"/>
      <point x="422" y="521" type="curve" smooth="yes"/>
      <point x="422" y="439"/>
      <point x="384" y="389"/>
      <point x="248" y="389" type="curve" smooth="yes"/>
      <point x="244" y="389" type="line"/>
      <point x="244" y="331" type="line"/>
      <point x="287" y="331" type="line" smooth="yes"/>
      <point x="411" y="331"/>
      <point x="485" y="400"/>
      <point x="485" y="521" type="curve" smooth="yes"/>
      <point x="485" y="633"/>
      <point x="400" y="712"/>
      <point x="281" y="712" type="curve" smooth="yes"/>
      <point x="160" y="712"/>
      <point x="75" y="632"/>
      <point x="75" y="519" type="curve" smooth="yes"/>
    </contour>
    <contour>
      <point x="239" y="0" type="line"/>
      <point x="287" y="0" type="line" smooth="yes"/>
      <point x="424" y="0"/>
      <point x="505" y="68"/>
      <point x="505" y="183" type="curve" smooth="yes"/>
      <point x="505" y="304"/>
      <point x="413" y="377"/>
      <point x="260" y="377" type="curve" smooth="yes"/>
      <point x="244" y="377" type="line"/>
      <point x="244" y="318" type="line"/>
      <point x="290" y="318" type="line" smooth="yes"/>
      <point x="385" y="318"/>
      <point x="442" y="268"/>
      <point x="442" y="183" type="curve" smooth="yes"/>
      <point x="442" y="106"/>
      <point x="384" y="59"/>
      <point x="287" y="59" type="curve" smooth="yes"/>
      <point x="239" y="59" type="line"/>
    </contour>
  </outline>
</glyph>
<glyph name="ae" format="2">
  <advance width="879"/>
  <unicode hex="00E6"/>
  <anchor x="627" y="0" name="bottom"/>
  <anchor x="791" y="50" name="ogonek"/>
  <anchor x="622" y="500" name="top"/>
  <outline>
    <contour>
      <point x="389" y="180" type="line"/>
      <point x="441" y="180" type="line"/>
      <point x="441" y="268" type="line" smooth="yes"/>
      <point x="441" y="432"/>
      <point x="376" y="512"/>
      <point x="242" y="512" type="curve" smooth="yes"/>
      <point x="158" y="512"/>
      <point x="94" y="477"/>
      <point x="50" y="405" type="curve"/>
      <point x="104" y="381" type="line"/>
      <point x="132" y="432"/>
      <point x="178" y="457"/>
      <point x="242" y="457" type="curve" smooth="yes"/>
      <point x="340" y="457"/>
      <point x="369" y="395"/>
      <point x="381" y="268" type="curve" smooth="yes"/>
    </contour>
    <contour>
      <point x="232" y="-12" type="curve" smooth="yes"/>
      <point x="360" y="-12"/>
      <point x="435" y="89"/>
      <point x="435" y="242" type="curve"/>
      <point x="381" y="242" type="line"/>
      <point x="381" y="123"/>
      <point x="324" y="43"/>
      <point x="228" y="43" type="curve" smooth="yes"/>
      <point x="150" y="43"/>
      <point x="105" y="80"/>
      <point x="105" y="141" type="curve"/>
      <point x="105" y="205"/>
      <point x="144" y="242"/>
      <point x="240" y="242" type="curve" smooth="yes"/>
      <point x="420" y="242" type="line"/>
      <point x="420" y="297" type="line"/>
      <point x="232" y="297" type="line" smooth="yes"/>
      <point x="114" y="297"/>
      <point x="45" y="239"/>
      <point x="45" y="141" type="curve"/>
      <point x="45" y="45"/>
      <point x="114" y="-12"/>
    </contour>
    <component base="e" xOffset="336"/>
  </outline>
</glyph>
<glyph name="idieresis" format="2">
  <advance width="220"/>
  <unicode hex="00EF"/>
  <anchor x="110" y="500" name="_top"/>
  <anchor x="110" y="710" name="top"/>
  <anchor x="110" y="0" name="bottom"/>
  <anchor x="139" y="0" name="ogonek"/>
  <outline>
    <contour>
      <point x="171" y="630" type="curve" smooth="yes"/>
      <point x="193" y="630"/>
      <point x="211" y="648"/>
      <point x="211" y="670" type="curve" smooth="yes"/>
      <point x="211" y="692"/>
      <point x="193" y="710"/>
      <point x="171" y="710" type="curve" smooth="yes"/>
      <point x="149" y="710"/>
      <point x="131" y="692"/>
      <point x="131" y="670" type="curve" smooth="yes"/>
      <point x="131" y="648"/>
      <point x="149" y="630"/>
    </contour>
    <contour>
      <point x="50" y="630" type="curve" smooth="yes"/>
      <point x="72" y="630"/>
      <point x="90" y="648"/>
      <point x="90" y="670" type="curve" smooth="yes"/>
      <point x="90" y="692"/>
      <point x="72" y="710"/>
      <point x="50" y="710" type="curve" smooth="yes"/>
      <point x="28" y="710"/>
      <point x="10" y="692"/>
      <point x="10" y="670" type="curve" smooth="yes"/>
      <point x="10" y="648"/>
      <point x="28" y="630"/>
    </contour>
    <component base="idotless"/>
  </outline>
</glyph>
<glyph name="eth" format="2">
  <advance width="600"/>
  <unicode hex="00F0"/>
  <outline>
    <contour>
      <point x="291" y="-12" type="curve" smooth="yes"/>
      <point x="433" y="-12"/>
      <point x="534" y="96"/>
      <point x="534" y="250" type="curve"/>
      <point x="472" y="405" type="line"/>
      <point x="433" y="472"/>
      <point x="368" y="512"/>
      <point x="289" y="512" type="curve" smooth="yes"/>
      <point x="146" y="512"/>
      <point x="45" y="404"/>
      <point x="45" y="250" type="curve" smooth="yes"/>
      <point x="45" y="96"/>
      <point x="147" y="-12"/>
    </contour>
    <contour>
      <point x="291" y="43" type="curve" smooth="yes"/>
      <point x="182" y="43"/>
      <point x="105" y="128"/>
      <point x="105" y="250" type="curve" smooth="yes"/>
      <point x="105" y="372"/>
      <point x="181" y="457"/>
      <point x="289" y="457" type="curve" smooth="yes"/>
      <point x="397" y="457"/>
      <point x="474" y="372"/>
      <point x="474" y="250" type="curve" smooth="yes"/>
      <point x="474" y="128"/>
      <point x="398" y="43"/>
    </contour>
    <contour>
      <point x="474" y="250" type="curve"/>
      <point x="534" y="250" type="line"/>
      <point x="534" y="516"/>
      <point x="400" y="689"/>
      <point x="170" y="737" type="curve"/>
      <point x="157" y="678" type="line"/>
      <point x="361" y="637"/>
      <point x="474" y="489"/>
    </contour>
    <contour>
      <point x="342" y="540" type="line"/>
      <point x="515" y="636" type="line"/>
      <point x="492" y="680" type="line"/>
      <point x="318" y="584" type="line"/>
    </contour>
  </outline>
</glyph>
<glyph name="divide" format="2">
  <advance width="520"/>
  <unicode hex="00F7"/>
  <outline>
    <contour>
      <point x="80" y="269" type="line"/>
      <point x="440" y="269" type="line"/>
      <point x="440" y="326" type="line"/>
      <point x="80" y="326" type="line"/>
    </contour>
    <contour>
      <point x="260" y="109" type="curve" smooth="yes"/>
      <point x="282" y="109"/>
      <point x="300" y="127"/>
      <point x="300" y="149" type="curve" smooth="yes"/>
      <point x="300" y="171"/>
      <point x="282" y="189"/>
      <point x="260" y="189" type="curve" smooth="yes"/>
      <point x="238" y="189"/>
      <point x="220" y="171"/>
      <point x="220" y="149" type="curve" smooth="yes"/>
      <point x="220" y="127"/>
      <point x="238" y="109"/>
    </contour>
    <contour>
      <point x="260" y="406" type="curve" smooth="yes"/>
      <point x="282" y="406"/>
      <point x="300" y="424"/>
      <point x="300" y="446" type="curve" smooth="yes"/>
      <point x="300" y="468"/>
      <point x="282" y="486"/>
      <point x="260" y="486" type="curve" smooth="yes"/>
      <point x="238" y="486"/>
      <point x="220" y="468"/>
      <point x="220" y="446" type="curve" smooth="yes"/>
      <point x="220" y="424"/>
      <point x="238" y="406"/>
    </contour>
  </outline>
</glyph>
<glyph name="thorn" format="2">
  <advance width="582"/>
  <unicode hex="00FE"/>
  <outline>
    <contour>
      <point x="75" y="-200" type="line"/>
      <point x="135" y="-200" type="line"/>
      <point x="135" y="700" type="line"/>
      <point x="75" y="700" type="line"/>
    </contour>
    <component base="Bowl" xScale="-1.0" xOffset="582.0"/>
  </outline>
</glyph>
<glyph name="dcroat" format="2">
  <advance width="582"/>
  <unicode hex="0111"/>
  <anchor x="477" y="700" name="top"/>
  <anchor x="508" y="700" name="top_caron"/>
  <outline>
    <contour>
      <point x="279" y="571" type="line"/>
      <point x="587" y="571" type="line"/>
      <point x="587" y="626" type="line"/>
      <point x="279" y="626" type="line"/>
    </contour>
    <component base="d"/>
  </outline>
</glyph>
<glyph name="hbar" format="2">
  <advance width="554"/>
  <unicode hex="0127"/>
  <anchor x="277" y="0" name="bottom"/>
  <anchor x="277" y="400" name="center"/>
  <anchor x="105" y="700" name="top"/>
  <outline>
    <contour>
      <point x="0" y="571" type="line"/>
      <point x="308" y="571" type="line"/>
      <point x="308" y="626" type="line"/>
      <point x="0" y="626" type="line"/>
    </contour>
    <component base="h"/>
  </outline>
</glyph>
<glyph name="idotless" format="2">
  <advance width="220"/>
  <unicode hex="0131"/>
  <anchor x="110" y="0" name="bottom"/>
  <anchor x="139" y="0" name="ogonek"/>
  <anchor x="110" y="500" name="top"/>
  <outline>
    <contour>
      <point x="79" y="0" type="line"/>
      <point x="139" y="0" type="line"/>
      <point x="139" y="500" type="line"/>
      <point x="79" y="500" type="line"/>
    </contour>
  </outline>
</glyph>
<glyph name="Lslash" format="2">
  <advance width="513"/>
  <unicode hex="0141"/>
  <anchor x="284" y="0" name="bottom"/>
  <anchor x="257" y="350" name="center"/>
  <anchor x="132" y="670" name="top"/>
  <anchor x="204" y="759" name="top_caron"/>
  <anchor x="493" y="700" name="topright"/>
  <outline>
    <contour>
      <point x="4" y="266" type="line"/>
      <point x="282" y="390" type="line"/>
      <point x="282" y="448" type="line"/>
      <point x="4" y="324" type="line"/>
    </contour>
    <component base="L"/>
  </outline>
</glyph>
<glyph name="lslash" format="2">
  <advance width="240"/>
  <unicode hex="0142"/>
  <anchor x="119" y="0" name="bottom"/>
  <anchor x="119" y="670" name="top"/>
  <anchor x="151" y="700" name="top_caron"/>
  <outline>
    <contour>
      <point x="0" y="269" type="line"/>
      <point x="240" y="384" type="line"/>
      <point x="240" y="442" type="line"/>
      <point x="0" y="327" type="line"/>
    </contour>
    <component base="l" xOffset="14"/>
  </outline>
</glyph>
<glyph name="Eng" format="2">
  <advance width="774"/>
  <unicode hex="014A"/>
  <anchor x="644" y="503" name="top"/>
  <anchor x="387" y="0" name="bottom"/>
  <outline>
    <contour>
      <point x="533" y="-212" type="curve" smooth="yes"/>
      <point x="628" y="-212"/>
      <point x="674" y="-162"/>
      <point x="674" y="-60" type="curve" smooth="yes"/>
      <point x="674" y="503" type="line"/>
      <point x="614" y="503" type="line"/>
      <point x="614" y="-60" type="line" smooth="yes"/>
      <point x="614" y="-125"/>
      <point x="589" y="-157"/>
      <point x="538" y="-157" type="curve" smooth="yes"/>
      <point x="524" y="-157"/>
      <point x="501" y="-150"/>
      <point x="466" y="-137" type="curve"/>
      <point x="444" y="-188" type="line"/>
      <point x="483" y="-204"/>
      <point x="512" y="-212"/>
    </contour>
    <component base="N"/>
  </outline>
</glyph>
<glyph name="eng" format="2">
  <advance width="554"/>
  <unicode hex="014B"/>
  <anchor x="464" y="500" name="top"/>
  <anchor x="277" y="0" name="bottom"/>
  <outline>
    <contour>
      <point x="353" y="-215" type="curve" smooth="yes"/>
      <point x="448" y="-215"/>
      <point x="494" y="-165"/>
      <point x="494" y="-63" type="curve" smooth="yes"/>
      <point x="494" y="0" type="line"/>
      <point x="434" y="0" type="line"/>
      <point x="434" y="-63" type="line" smooth="yes"/>
      <point x="434" y="-128"/>
      <point x="409" y="-160"/>
      <point x="358" y="-160" type="curve" smooth="yes"/>
      <point x="344" y="-160"/>
      <point x="321" y="-153"/>
      <point x="286" y="-140" type="curve"/>
      <point x="264" y="-191" type="line"/>
      <point x="303" y="-207"/>
      <point x="332" y="-215"/>
    </contour>
    <component base="n"/>
  </outline>
</glyph>
<glyph name="OE" format="2">
  <advance width="1140"/>
  <unicode hex="0152"/>
  <anchor x="386" y="0" name="bottom"/>
  <anchor x="386" y="350" name="center"/>
  <anchor x="695" y="10" name="ogonek"/>
  <anchor x="386" y="670" name="top"/>
  <anchor x="20" y="700" name="topleft"/>
  <anchor x="752" y="700" name="topright"/>
  <outline>
    <contour>
      <point x="389" y="-16" type="curve" smooth="yes"/>
      <point x="572" y="-16"/>
      <point x="702" y="115"/>
      <point x="702" y="350" type="curve" smooth="yes"/>
      <point x="702" y="584"/>
      <point x="572" y="716"/>
      <point x="386" y="716" type="curve" smooth="yes"/>
      <point x="188" y="716"/>
      <point x="50" y="565"/>
      <point x="50" y="350" type="curve" smooth="yes"/>
      <point x="50" y="135"/>
      <point x="191" y="-16"/>
    </contour>
    <contour>
      <point x="389" y="42" type="curve" smooth="yes"/>
      <point x="228" y="42"/>
      <point x="114" y="170"/>
      <point x="114" y="350" type="curve" smooth="yes"/>
      <point x="114" y="530"/>
      <point x="227" y="658"/>
      <point x="386" y="658" type="curve" smooth="yes"/>
      <point x="538" y="658"/>
      <point x="647" y="550"/>
      <point x="647" y="350" type="curve" smooth="yes"/>
      <point x="647" y="150"/>
      <point x="540" y="42"/>
    </contour>
    <component base="E" xOffset="547"/>
  </outline>
</glyph>
<glyph name="tcaron" format="2">
  <advance width="377"/>
  <unicode hex="0165"/>
  <anchor x="209" y="0" name="bottom"/>
  <anchor x="179" y="250" name="center"/>
  <anchor x="179" y="500" name="top"/>
  <anchor x="198" y="726" name="top_caron"/>
  <anchor x="347" y="800" name="topright"/>
  <outline>
    <contour>
      <point x="231" y="553" type="line"/>
      <point x="287" y="553" type="line"/>
      <point x="357" y="725" type="line"/>
      <point x="286" y="725" type="line"/>
    </contour>
    <component base="t"/>
  </outline>
</glyph>
<glyph name="jdotless" format="2">
  <advance width="250"/>
  <unicode hex="0237"/>
  <anchor x="150" y="500" name="top"/>
  <outline>
    <contour>
      <point x="39" y="-215" type="curve" smooth="yes"/>
      <point x="134" y="-215"/>
      <point x="180" y="-165"/>
      <point x="180" y="-63" type="curve" smooth="yes"/>
      <point x="180" y="500" type="line"/>
      <point x="120" y="500" type="line"/>
      <point x="120" y="-63" type="line" smooth="yes"/>
      <point x="120" y="-128"/>
      <point x="95" y="-160"/>
      <point x="44" y="-160" type="curve" smooth="yes"/>
      <point x="30" y="-160"/>
      <point x="7" y="-153"/>
      <point x="-28" y="-140" type="curve"/>
      <point x="-50" y="-191" type="line"/>
      <point x="-11" y="-207"/>
      <point x="18" y="-215"/>
    </contour>
  </outline>
</glyph>
<glyph name="ring" format="2">
  <advance width="600"/>
  <unicode hex="02DA"/>
  <anchor x="332" y="670" name="_top"/>
  <outline>
    <contour>
      <point x="332" y="734" type="curve" smooth="yes"/>
      <point x="380" y="734"/>
      <point x="419" y="773"/>
      <point x="419" y="819" type="curve" smooth="yes"/>
      <point x="419" y="866"/>
      <point x="380" y="905"/>
      <point x="332" y="905" type="curve" smooth="yes"/>
      <point x="283" y="905"/>
      <point x="244" y="866"/>
      <point x="244" y="819" type="curve" smooth="yes"/>
      <point x="244" y="773"/>
      <point x="283" y="734"/>
    </contour>
    <contour>
      <point x="332" y="780" type="curve" smooth="yes"/>
      <point x="308" y="780"/>
      <point x="294" y="794"/>
      <point x="294" y="819" type="curve" smooth="yes"/>
      <point x="294" y="845"/>
      <point x="308" y="859"/>
      <point x="332" y="859" type="curve" smooth="yes"/>
      <point x="355" y="859"/>
      <point x="369" y="845"/>
      <point x="369" y="819" type="curve" smooth="yes"/>
      <point x="369" y="794"/>
      <point x="355" y="780"/>
    </contour>
  </outline>
</glyph>
<glyph name="gravecomb" format="2">
  <unicode hex="0300"/>
  <anchor x="249" y="500" name="_top"/>
  <anchor x="249" y="500" name="top"/>
  <outline>
    <contour>
      <point x="276" y="574" type="line"/>
      <point x="352" y="574" type="line"/>
      <point x="231" y="701" type="line"/>
      <point x="146" y="701" type="line"/>
    </contour>
  </outline>
</glyph>
<glyph name="acutecomb" format="2">
  <unicode hex="0301"/>
  <anchor x="289" y="500" name="_top"/>
  <anchor x="289" y="500" name="top"/>
  <outline>
    <contour>
      <point x="227" y="574" type="line"/>
      <point x="303" y="574" type="line"/>
      <point x="431" y="700" type="line"/>
      <point x="346" y="700" type="line"/>
    </contour>
  </outline>
</glyph>
<glyph name="circumflexcomb" format="2">
  <unicode hex="0302"/>
  <anchor x="163" y="500" name="_top"/>
  <outline>
    <contour>
      <point x="249" y="586" type="line"/>
      <point x="325" y="586" type="line"/>
      <point x="205" y="712" type="line"/>
      <point x="121" y="712" type="line"/>
      <point x="121" y="711" type="line"/>
    </contour>
    <contour>
      <point x="0" y="586" type="line"/>
      <point x="76" y="586" type="line"/>
      <point x="204" y="711" type="line"/>
      <point x="204" y="712" type="line"/>
      <point x="120" y="712" type="line"/>
    </contour>
  </outline>
</glyph>
<glyph name="brevecomb" format="2">
  <unicode hex="0306"/>
  <anchor x="163" y="500" name="_top"/>
  <outline>
    <contour>
      <point x="163" y="569" type="curve" smooth="yes"/>
      <point x="258" y="569"/>
      <point x="325" y="623"/>
      <point x="325" y="700" type="curve"/>
      <point x="265" y="700" type="line"/>
      <point x="265" y="655"/>
      <point x="223" y="623"/>
      <point x="163" y="623" type="curve" smooth="yes"/>
      <point x="103" y="623"/>
      <point x="60" y="655"/>
      <point x="60" y="700" type="curve"/>
      <point x="0" y="700" type="line"/>
      <point x="0" y="623"/>
      <point x="68" y="569"/>
    </contour>
  </outline>
</glyph>
<glyph name="dieresiscomb" format="2">
  <unicode hex="0308"/>
  <anchor x="135" y="500" name="_top"/>
  <anchor x="135" y="710" name="top"/>
  <outline>
    <contour>
      <point x="256" y="630" type="curve" smooth="yes"/>
      <point x="278" y="630"/>
      <point x="296" y="648"/>
      <point x="296" y="670" type="curve" smooth="yes"/>
      <point x="296" y="692"/>
      <point x="278" y="710"/>
      <point x="256" y="710" type="curve" smooth="yes"/>
      <point x="234" y="710"/>
      <point x="216" y="692"/>
      <point x="216" y="670" type="curve" smooth="yes"/>
      <point x="216" y="648"/>
      <point x="234" y="630"/>
    </contour>
    <contour>
      <point x="14" y="630" type="curve" smooth="yes"/>
      <point x="36" y="630"/>
      <point x="54" y="648"/>
      <point x="54" y="670" type="curve" smooth="yes"/>
      <point x="54" y="692"/>
      <point x="36" y="710"/>
      <point x="14" y="710" type="curve" smooth="yes"/>
      <point x="-8" y="710"/>
      <point x="-26" y="692"/>
      <point x="-26" y="670" type="curve" smooth="yes"/>
      <point x="-26" y="648"/>
      <point x="-8" y="630"/>
    </contour>
  </outline>
</glyph>
<glyph name="hungarumlautcomb" format="2">
  <unicode hex="030B"/>
  <anchor x="142" y="500" name="_top"/>
  <outline>
    <contour>
      <point x="170" y="574" type="line"/>
      <point x="250" y="574" type="line"/>
      <point x="358" y="700" type="line"/>
      <point x="269" y="700" type="line"/>
    </contour>
    <contour>
      <point x="0" y="574" type="line"/>
      <point x="80" y="574" type="line"/>
      <point x="188" y="700" type="line"/>
      <point x="99" y="700" type="line"/>
    </contour>
  </outline>
</glyph>
<glyph name="caroncomb" format="2">
  <unicode hex="030C"/>
  <anchor x="163" y="500" name="_top"/>
  <outline>
    <contour>
      <point x="125" y="574" type="line"/>
      <point x="205" y="574" type="line"/>
      <point x="325" y="700" type="line"/>
      <point x="247" y="700" type="line"/>
      <point x="125" y="575" type="line"/>
    </contour>
    <contour>
      <point x="120" y="574" type="line"/>
      <point x="200" y="574" type="line"/>
      <point x="200" y="575" type="line"/>
      <point x="78" y="700" type="line"/>
      <point x="0" y="700" type="line"/>
    </contour>
  </outline>
</glyph>
<glyph name="cedillacomb" format="2">
  <unicode hex="0327"/>
  <anchor x="297" y="0" name="_bottom"/>
  <outline>
    <contour>
      <point x="270" y="-210" type="curve" smooth="yes"/>
      <point x="337" y="-210"/>
      <point x="361" y="-169"/>
      <point x="361" y="-120" type="curve" smooth="yes"/>
      <point x="361" y="-86"/>
      <point x="344" y="-52"/>
      <point x="294" y="-33" type="curve"/>
      <point x="305" y="-8" type="line"/>
      <point x="260" y="6" type="line"/>
      <point x="231" y="-63" type="line"/>
      <point x="285" y="-73"/>
      <point x="311" y="-88"/>
      <point x="311" y="-125" type="curve" smooth="yes"/>
      <point x="311" y="-157"/>
      <point x="286" y="-164"/>
      <point x="262" y="-164" type="curve" smooth="yes"/>
      <point x="240" y="-164"/>
      <point x="215" y="-152"/>
      <point x="194" y="-141" type="curve"/>
      <point x="175" y="-184" type="line"/>
      <point x="219" y="-207"/>
      <point x="246" y="-210"/>
    </contour>
  </outline>
</glyph>
<glyph name="Germandbls" format="2">
  <advance width="559"/>
  <unicode hex="1E9E"/>
  <outline>
    <contour>
      <point x="100" y="0" type="line"/>
      <point x="164" y="0" type="line"/>
      <point x="164" y="530" type="line" smooth="yes"/>
      <point x="164" y="607"/>
      <point x="205" y="654"/>
      <point x="290" y="654" type="curve" smooth="yes"/>
      <point x="398" y="654"/>
      <point x="432" y="592"/>
      <point x="463" y="545" type="curve"/>
      <point x="509" y="596" type="line"/>
      <point x="481" y="638"/>
      <point x="427" y="712"/>
      <point x="295" y="712" type="curve" smooth="yes"/>
      <point x="164" y="712"/>
      <point x="100" y="649"/>
      <point x="100" y="540" type="curve" smooth="yes"/>
    </contour>
    <contour>
      <point x="309" y="-12" type="curve" smooth="yes"/>
      <point x="440" y="-12"/>
      <point x="509" y="60"/>
      <point x="509" y="183" type="curve" smooth="yes"/>
      <point x="509" y="305"/>
      <point x="433" y="377"/>
      <point x="304" y="377" type="curve" smooth="yes"/>
      <point x="243" y="377" type="line"/>
      <point x="243" y="319" type="line"/>
      <point x="304" y="319" type="line" smooth="yes"/>
      <point x="392" y="319"/>
      <point x="445" y="268"/>
      <point x="445" y="183" type="curve" smooth="yes"/>
      <point x="445" y="97"/>
      <point x="403" y="46"/>
      <point x="317" y="46" type="curve" smooth="yes"/>
      <point x="272" y="46"/>
      <point x="250" y="72"/>
      <point x="240" y="80" type="curve"/>
      <point x="195" y="40" type="line"/>
      <point x="233" y="-1"/>
      <point x="284" y="-12"/>
    </contour>
    <contour>
      <point x="243" y="340" type="line"/>
      <point x="286" y="340" type="line"/>
      <point x="507" y="595" type="line"/>
      <point x="464" y="636" type="line"/>
      <point x="243" y="382" type="line"/>
    </contour>
  </outline>
</glyph>
<glyph name="endash" format="2">
  <advance width="550"/>
  <unicode hex="2013"/>
  <outline>
    <contour>
      <point x="0" y="269" type="line"/>
      <point x="550" y="269" type="line"/>
      <point x="550" y="326" type="line"/>
      <point x="0" y="326" type="line"/>
    </contour>
  </outline>
</glyph>
<glyph name="dagger" format="2">
  <advance width="478"/>
  <unicode hex="2020"/>
  <outline>
    <contour>
      <point x="208" y="0" type="line"/>
      <point x="270" y="0" type="line"/>
      <point x="265" y="472" type="line"/>
      <point x="270" y="700" type="line"/>
      <point x="208" y="700" type="line"/>
      <point x="213" y="472" type="line"/>
    </contour>
    <contour>
      <point x="24" y="446" type="line"/>
      <point x="239" y="451" type="line"/>
      <point x="453" y="446" type="line"/>
      <point x="453" y="502" type="line"/>
      <point x="239" y="497" type="line"/>
      <point x="24" y="502" type="line"/>
    </contour>
  </outline>
</glyph>
<glyph name="daggerdbl" format="2">
  <advance width="478"/>
  <unicode hex="2021"/>
  <outline>
    <contour>
      <point x="208" y="-200" type="line"/>
      <point x="270" y="-200" type="line"/>
      <point x="265" y="24" type="line"/>
      <point x="270" y="250" type="line"/>
      <point x="265" y="472" type="line"/>
      <point x="270" y="700" type="line"/>
      <point x="208" y="700" type="line"/>
      <point x="213" y="472" type="line"/>
      <point x="208" y="250" type="line"/>
      <point x="213" y="24" type="line"/>
    </contour>
    <contour>
      <point x="25" y="-3" type="line"/>
      <point x="240" y="2" type="line"/>
      <point x="453" y="-3" type="line"/>
      <point x="453" y="53" type="line"/>
      <point x="240" y="48" type="line"/>
      <point x="25" y="53" type="line"/>
    </contour>
    <contour>
      <point x="25" y="446" type="line"/>
      <point x="239" y="451" type="line"/>
      <point x="453" y="446" type="line"/>
      <point x="453" y="502" type="line"/>
      <point x="239" y="497" type="line"/>
      <point x="25" y="502" type="line"/>
    </contour>
  </outline>
</glyph>
<glyph name="bullet" format="2">
  <advance width="497"/>
  <unicode hex="2022"/>
  <outline>
    <contour>
      <point x="248" y="183" type="curve" smooth="yes"/>
      <point x="301" y="183"/>
      <point x="347" y="229"/>
      <point x="347" y="282" type="curve" smooth="yes"/>
      <point x="347" y="336"/>
      <point x="301" y="380"/>
      <point x="248" y="380" type="curve" smooth="yes"/>
      <point x="194" y="380"/>
      <point x="150" y="336"/>
      <point x="150" y="282" type="curve" smooth="yes"/>
      <point x="150" y="229"/>
      <point x="194" y="183"/>
    </contour>
  </outline>
</glyph>
<glyph name="guilsinglleft" format="2">
  <advance width="343"/>
  <unicode hex="2039"/>
  <outline>
    <contour>
      <point x="50" y="298" type="line"/>
      <point x="126" y="298" type="line"/>
      <point x="283" y="500" type="line"/>
      <point x="207" y="500" type="line"/>
    </contour>
    <contour>
      <point x="207" y="96" type="line"/>
      <point x="283" y="96" type="line"/>
      <point x="126" y="298" type="line"/>
      <point x="50" y="298" type="line"/>
    </contour>
  </outline>
</glyph>
<glyph name="euro" format="2">
  <advance width="649"/>
  <unicode hex="20AC"/>
  <outline>
    <contour>
      <point x="375" y="-12" type="curve" smooth="yes"/>
      <point x="470" y="-12"/>
      <point x="567" y="63"/>
      <point x="609" y="170" type="curve"/>
      <point x="555" y="203" type="line"/>
      <point x="523" y="111"/>
      <point x="448" y="46"/>
      <point x="375" y="46" type="curve" smooth="yes"/>
      <point x="251" y="46"/>
      <point x="165" y="171"/>
      <point x="165" y="350" type="curve" smooth="yes"/>
      <point x="165" y="528"/>
      <point x="251" y="654"/>
      <point x="372" y="654" type="curve" smooth="yes"/>
      <point x="444" y="654"/>
      <point x="520" y="594"/>
      <point x="552" y="509" type="curve"/>
      <point x="606" y="542" type="line"/>
      <point x="564" y="642"/>
      <point x="468" y="712"/>
      <point x="372" y="712" type="curve" smooth="yes"/>
      <point x="213" y="712"/>
      <point x="101" y="562"/>
      <point x="101" y="350" type="curve" smooth="yes"/>
      <point x="101" y="138"/>
      <point x="214" y="-12"/>
    </contour>
    <contour>
      <point x="20" y="258" type="line"/>
      <point x="449" y="258" type="line"/>
      <point x="449" y="310" type="line"/>
      <point x="20" y="310" type="line"/>
    </contour>
    <contour>
      <point x="20" y="390" type="line"/>
      <point x="449" y="390" type="line"/>
      <point x="449" y="442" type="line"/>
      <point x="20" y="442" type="line"/>
    </contour>
  </outline>
</glyph>
<glyph name="trademark" format="2">
  <advance width="848"/>
  <unicode hex="2122"/>
  <outline>
    <contour>
      <point x="138" y="280" type="line"/>
      <point x="200" y="280" type="line"/>
      <point x="200" y="665" type="line"/>
      <point x="138" y="665" type="line"/>
    </contour>
    <contour>
      <point x="7" y="643" type="line"/>
      <point x="331" y="643" type="line"/>
      <point x="331" y="700" type="line"/>
      <point x="7" y="700" type="line"/>
    </contour>
    <contour>
      <point x="390" y="280" type="line"/>
      <point x="453" y="280" type="line"/>
      <point x="453" y="700" type="line"/>
      <point x="390" y="700" type="line"/>
    </contour>
    <contour>
      <point x="593" y="392" type="line"/>
      <point x="625" y="452" type="line"/>
      <point x="457" y="700" type="line"/>
      <point x="424" y="692" type="line"/>
      <point x="397" y="681" type="line"/>
    </contour>
    <contour>
      <point x="593" y="392" type="line"/>
      <point x="790" y="682" type="line"/>
      <point x="763" y="692" type="line"/>
      <point x="730" y="700" type="line"/>
      <point x="563" y="452" type="line"/>
    </contour>
    <contour>
      <point x="734" y="280" type="line"/>
      <point x="796" y="280" type="line"/>
      <point x="796" y="700" type="line"/>
      <point x="734" y="700" type="line"/>
    </contour>
  </outline>
</glyph>
<glyph name="northEastArrow" format="2">
  <advance width="724"/>
  <unicode hex="2197"/>
  <outline>
    <contour>
      <point x="140" y="177" type="line"/>
      <point x="601" y="638" type="line"/>
      <point x="561" y="678" type="line"/>
      <point x="100" y="217" type="line"/>
    </contour>
    <contour>
      <point x="229" y="640" type="line"/>
      <point x="596" y="640" type="line"/>
      <point x="624" y="700" type="line"/>
      <point x="229" y="700" type="line"/>
    </contour>
    <contour>
      <point x="564" y="305" type="line"/>
      <point x="624" y="305" type="line"/>
      <point x="624" y="700" type="line"/>
      <point x="564" y="673" type="line"/>
    </contour>
  </outline>
</glyph>
<glyph name="minus" format="2">
  <advance width="500"/>
  <unicode hex="2212"/>
  <outline>
    <contour>
      <point x="70" y="269" type="line"/>
      <point x="430" y="269" type="line"/>
      <point x="430" y="326" type="line"/>
      <point x="70" y="326" type="line"/>
    </contour>
  </outline>
</glyph>
<glyph name="divisionslash" format="2">
  <advance width="620"/>
  <unicode hex="2215"/>
  <outline>
    <contour>
      <point x="35" y="0" type="line"/>
      <point x="103" y="0" type="line"/>
      <point x="585" y="700" type="line"/>
      <point x="517" y="700" type="line"/>
    </contour>
  </outline>
</glyph>
<glyph name="notequal" format="2">
  <advance width="620"/>
  <unicode hex="2260"/>
  <outline>
    <contour>
      <point x="165" y="70" type="line"/>
      <point x="229" y="70" type="line"/>
      <point x="475" y="582" type="line"/>
      <point x="411" y="582" type="line"/>
    </contour>
    <component base="equal" yOffset="30"/>
  </outline>
</glyph>
<glyph name="lessequal" format="2">
  <advance width="620"/>
  <unicode hex="2264"/>
  <outline>
    <contour>
      <point x="139" y="0" type="line"/>
      <point x="470" y="0" type="line"/>
      <point x="470" y="51" type="line"/>
      <point x="139" y="51" type="line"/>
    </contour>
    <contour>
      <point x="470" y="490" type="line"/>
      <point x="139" y="331" type="line"/>
      <point x="139" y="265" type="line"/>
      <point x="470" y="428" type="line"/>
    </contour>
    <contour>
      <point x="139" y="331" type="line"/>
      <point x="139" y="265" type="line"/>
      <point x="470" y="108" type="line"/>
      <point x="470" y="171" type="line"/>
    </contour>
  </outline>
</glyph>
<glyph name="greaterequal" format="2">
  <advance width="620"/>
  <unicode hex="2265"/>
  <outline>
    <contour>
      <point x="150" y="0" type="line"/>
      <point x="481" y="0" type="line"/>
      <point x="481" y="51" type="line"/>
      <point x="150" y="51" type="line"/>
    </contour>
    <contour>
      <point x="150" y="107" type="line"/>
      <point x="481" y="266" type="line"/>
      <point x="481" y="332" type="line"/>
      <point x="150" y="169" type="line"/>
    </contour>
    <contour>
      <point x="481" y="266" type="line"/>
      <point x="481" y="332" type="line"/>
      <point x="150" y="489" type="line"/>
      <point x="150" y="426" type="line"/>
    </contour>
  </outline>
</glyph>
<glyph name="Bowl" format="2">
  <advance width="582"/>
  <outline>
    <contour>
      <point x="271" y="-12" type="curve" smooth="yes"/>
      <point x="398" y="-12"/>
      <point x="487" y="97"/>
      <point x="487" y="250" type="curve" smooth="yes"/>
      <point x="487" y="403"/>
      <point x="398" y="512"/>
      <point x="271" y="512" type="curve" smooth="yes"/>
      <point x="139" y="512"/>
      <point x="45" y="403"/>
      <point x="45" y="250" type="curve" smooth="yes"/>
      <point x="45" y="97"/>
      <point x="139" y="-12"/>
    </contour>
    <contour>
      <point x="283" y="42" type="curve" smooth="yes"/>
      <point x="179" y="42"/>
      <point x="105" y="128"/>
      <point x="105" y="250" type="curve" smooth="yes"/>
      <point x="105" y="372"/>
      <point x="178" y="458"/>
      <point x="282" y="458" type="curve" smooth="yes"/>
      <point x="379" y="458"/>
      <point x="447" y="372"/>
      <point x="447" y="250" type="curve" smooth="yes"/>
      <point x="447" y="128"/>
      <point x="379" y="42"/>
    </contour>
  </outline>
</glyph>
<glyph name="I.ss02" format="2">
  <advance width="364"/>
  <anchor x="182" y="0" name="bottom"/>
  <anchor x="214" y="0" name="ogonek"/>
  <anchor x="182" y="670" name="top"/>
  <anchor x="70" y="700" name="topleft"/>
  <outline>
    <contour>
      <point x="50" y="0" type="line"/>
      <point x="314" y="0" type="line"/>
      <point x="314" y="58" type="line"/>
      <point x="214" y="58" type="line"/>
      <point x="214" y="642" type="line"/>
      <point x="314" y="642" type="line"/>
      <point x="314" y="700" type="line"/>
      <point x="50" y="700" type="line"/>
      <point x="50" y="642" type="line"/>
      <point x="150" y="642" type="line"/>
      <point x="150" y="58" type="line"/>
      <point x="50" y="58" type="line"/>
    </contour>
  </outline>
</glyph>
<glyph name="Idieresis.ss02" format="2">
  <advance width="364"/>
  <anchor x="182" y="670" name="_top"/>
  <anchor x="182" y="880" name="top"/>
  <anchor x="182" y="0" name="bottom"/>
  <anchor x="214" y="0" name="ogonek"/>
  <anchor x="70" y="700" name="topleft"/>
  <outline>
    <contour>
      <point x="243" y="800" type="curve" smooth="yes"/>
      <point x="265" y="800"/>
      <point x="283" y="818"/>
      <point x="283" y="840" type="curve" smooth="yes"/>
      <point x="283" y="862"/>
      <point x="265" y="880"/>
      <point x="243" y="880" type="curve" smooth="yes"/>
      <point x="221" y="880"/>
      <point x="203" y="862"/>
      <point x="203" y="840" type="curve" smooth="yes"/>
      <point x="203" y="818"/>
      <point x="221" y="800"/>
    </contour>
    <contour>
      <point x="122" y="800" type="curve" smooth="yes"/>
      <point x="144" y="800"/>
      <point x="162" y="818"/>
      <point x="162" y="840" type="curve" smooth="yes"/>
      <point x="162" y="862"/>
      <point x="144" y="880"/>
      <point x="122" y="880" type="curve" smooth="yes"/>
      <point x="100" y="880"/>
      <point x="82" y="862"/>
      <point x="82" y="840" type="curve" smooth="yes"/>
      <point x="82" y="818"/>
      <point x="100" y="800"/>
    </contour>
    <component base="I.ss02"/>
  </outline>
</glyph>
<glyph name="a.001" format="2">
  <advance width="511"/>
  <outline>
    <contour>
      <point x="401" y="0" type="line"/>
      <point x="451" y="0" type="line"/>
      <point x="451" y="272" type="line" smooth="yes"/>
      <point x="451" y="436"/>
      <point x="384" y="516"/>
      <point x="246" y="516" type="curve" smooth="yes"/>
      <point x="176" y="516"/>
      <point x="117" y="489"/>
      <point x="68" y="434" type="curve"/>
      <point x="103" y="395" type="line"/>
      <point x="147" y="439"/>
      <point x="194" y="461"/>
      <point x="246" y="461" type="curve" smooth="yes"/>
      <point x="338" y="461"/>
      <point x="386" y="399"/>
      <point x="391" y="272" type="curve" smooth="yes"/>
    </contour>
    <contour>
      <point x="242" y="-16" type="curve" smooth="yes"/>
      <point x="371" y="-16"/>
      <point x="447" y="75"/>
      <point x="447" y="214" type="curve"/>
      <point x="392" y="214" type="line"/>
      <point x="392" y="110"/>
      <point x="335" y="39"/>
      <point x="238" y="39" type="curve" smooth="yes"/>
      <point x="154" y="39"/>
      <point x="105" y="77"/>
      <point x="105" y="141" type="curve" smooth="yes"/>
      <point x="105" y="211"/>
      <point x="159" y="252"/>
      <point x="250" y="252" type="curve" smooth="yes"/>
      <point x="299" y="252"/>
      <point x="355" y="236"/>
      <point x="401" y="209" type="curve"/>
      <point x="415" y="264" type="line"/>
      <point x="376" y="291"/>
      <point x="312" y="307"/>
      <point x="242" y="307" type="curve" smooth="yes"/>
      <point x="118" y="307"/>
      <point x="45" y="245"/>
      <point x="45" y="141" type="curve" smooth="yes"/>
      <point x="45" y="42"/>
      <point x="118" y="-16"/>
    </contour>
  </outline>
</glyph>
<glyph name="a.ss01" format="2">
  <advance width="582"/>
  <anchor x="507" y="0" name="ogonek"/>
  <anchor x="282" y="500" name="top"/>
  <outline>
    <contour>
      <point x="450" y="0" type="line"/>
      <point x="507" y="0" type="line"/>
      <point x="507" y="500" type="line"/>
      <point x="447" y="500" type="line"/>
      <point x="447" y="93" type="line"/>
    </contour>
    <component base="Bowl"/>
  </outline>
</glyph>
<glyph name="arch" format="2">
  <advance width="396"/>
  <outline>
    <contour>
      <point x="336" y="256" type="curve"/>
      <point x="396" y="256" type="line"/>
      <point x="396" y="279" type="line"/>
      <point x="397" y="446"/>
      <point x="314" y="512"/>
      <point x="199" y="512" type="curve" smooth="yes"/>
      <point x="70" y="512"/>
      <point x="0" y="417"/>
      <point x="0" y="257" type="curve"/>
      <point x="37" y="257" type="line"/>
      <point x="37" y="382"/>
      <point x="93" y="456"/>
      <point x="188" y="456" type="curve" smooth="yes"/>
      <point x="271" y="456"/>
      <point x="336" y="422"/>
    </contour>
  </outline>
</glyph>
<glyph name="caroncomb.alt" format="2">
  <anchor x="0" y="700" name="_top_caron"/>
  <outline>
    <contour>
      <point x="23" y="527" type="line"/>
      <point x="79" y="527" type="line"/>
      <point x="149" y="699" type="line"/>
      <point x="78" y="699" type="line"/>
    </contour>
  </outline>
</glyph>
<glyph name="eight.numr" format="2">
  <advance width="392"/>
  <outline>
    <contour>
      <point x="196" y="273" type="curve" smooth="yes"/>
      <point x="290" y="273"/>
      <point x="350" y="320"/>
      <point x="350" y="389" type="curve" smooth="yes"/>
      <point x="350" y="462"/>
      <point x="290" y="513"/>
      <point x="196" y="513" type="curve" smooth="yes"/>
      <point x="101" y="513"/>
      <point x="42" y="462"/>
      <point x="42" y="389" type="curve" smooth="yes"/>
      <point x="42" y="320"/>
      <point x="101" y="273"/>
    </contour>
    <contour>
      <point x="196" y="326" type="curve" smooth="yes"/>
      <point x="143" y="326"/>
      <point x="106" y="355"/>
      <point x="106" y="396" type="curve" smooth="yes"/>
      <point x="106" y="439"/>
      <point x="143" y="469"/>
      <point x="196" y="469" type="curve" smooth="yes"/>
      <point x="249" y="469"/>
      <point x="286" y="439"/>
      <point x="286" y="396" type="curve" smooth="yes"/>
      <point x="286" y="355"/>
      <point x="248" y="326"/>
    </contour>
    <contour>
      <point x="196" y="523" type="curve" smooth="yes"/>
      <point x="151" y="523"/>
      <point x="118" y="549"/>
      <point x="118" y="587" type="curve" smooth="yes"/>
      <point x="118" y="627"/>
      <point x="151" y="655"/>
      <point x="196" y="655" type="curve" smooth="yes"/>
      <point x="241" y="655"/>
      <point x="274" y="627"/>
      <point x="274" y="587" type="curve" smooth="yes"/>
      <point x="274" y="549"/>
      <point x="241" y="523"/>
    </contour>
    <contour>
      <point x="196" y="482" type="curve" smooth="yes"/>
      <point x="280" y="482"/>
      <point x="335" y="527"/>
      <point x="335" y="593" type="curve" smooth="yes"/>
      <point x="335" y="660"/>
      <point x="281" y="707"/>
      <point x="196" y="707" type="curve" smooth="yes"/>
      <point x="111" y="707"/>
      <point x="57" y="660"/>
      <point x="57" y="593" type="curve" smooth="yes"/>
      <point x="57" y="527"/>
      <point x="111" y="482"/>
    </contour>
  </outline>
</glyph>
<glyph name="four.tf" format="2">
  <advance width="620"/>
  <outline>
    <contour>
      <point x="101" y="197" type="line"/>
      <point x="419" y="663" type="line"/>
      <point x="374" y="700" type="line"/>
      <point x="52" y="231" type="line"/>
    </contour>
    <contour>
      <point x="52" y="182" type="line"/>
      <point x="588" y="182" type="line"/>
      <point x="588" y="241" type="line"/>
      <point x="97" y="241" type="line"/>
      <point x="52" y="231" type="line"/>
    </contour>
    <contour>
      <point x="374" y="0" type="line"/>
      <point x="437" y="0" type="line"/>
      <point x="437" y="700" type="line"/>
      <point x="374" y="700" type="line"/>
      <point x="374" y="654" type="line"/>
    </contour>
  </outline>
</glyph>
<glyph name="g.ss02" format="2">
  <advance width="582"/>
  <outline>
    <contour>
      <point x="266" y="-201" type="curve" smooth="yes"/>
      <point x="410" y="-201"/>
      <point x="507" y="-110"/>
      <point x="507" y="46" type="curve" smooth="yes"/>
      <point x="507" y="500" type="line"/>
      <point x="447" y="500" type="line"/>
      <point x="447" y="46" type="line" smooth="yes"/>
      <point x="447" y="-78"/>
      <point x="375" y="-146"/>
      <point x="266" y="-146" type="curve" smooth="yes"/>
      <point x="194" y="-146"/>
      <point x="136" y="-105"/>
      <point x="106" y="-38" type="curve"/>
      <point x="53" y="-66" type="line"/>
      <point x="93" y="-149"/>
      <point x="170" y="-201"/>
    </contour>
    <contour>
      <point x="271" y="0" type="curve" smooth="yes"/>
      <point x="398" y="0"/>
      <point x="487" y="107"/>
      <point x="487" y="258" type="curve" smooth="yes"/>
      <point x="487" y="407"/>
      <point x="398" y="512"/>
      <point x="271" y="512" type="curve" smooth="yes"/>
      <point x="139" y="512"/>
      <point x="45" y="407"/>
      <point x="45" y="258" type="curve" smooth="yes"/>
      <point x="45" y="107"/>
      <point x="139" y="0"/>
    </contour>
    <contour>
      <point x="283" y="53" type="curve" smooth="yes"/>
      <point x="179" y="53"/>
      <point x="105" y="138"/>
      <point x="105" y="258" type="curve" smooth="yes"/>
      <point x="105" y="376"/>
      <point x="178" y="460"/>
      <point x="282" y="460" type="curve" smooth="yes"/>
      <point x="379" y="460"/>
      <point x="447" y="376"/>
      <point x="447" y="258" type="curve" smooth="yes"/>
      <point x="447" y="138"/>
      <point x="379" y="53"/>
    </contour>
  </outline>
</glyph>
<glyph name="l.ss02" format="2">
  <advance width="284"/>
  <anchor x="202" y="0" name="bottom"/>
  <anchor x="105" y="670" name="top"/>
  <anchor x="137" y="700" name="top_caron"/>
  <outline>
    <contour>
      <point x="202" y="-12" type="curve" smooth="yes"/>
      <point x="227" y="-12"/>
      <point x="248" y="-8"/>
      <point x="284" y="13" type="curve"/>
      <point x="259" y="65" type="line"/>
      <point x="229" y="45"/>
      <point x="218" y="43"/>
      <point x="202" y="43" type="curve" smooth="yes"/>
      <point x="160" y="43"/>
      <point x="135" y="74"/>
      <point x="135" y="128" type="curve" smooth="yes"/>
      <point x="135" y="700" type="line"/>
      <point x="75" y="700" type="line"/>
      <point x="75" y="128" type="line" smooth="yes"/>
      <point x="75" y="39"/>
      <point x="123" y="-12"/>
    </contour>
  </outline>
</glyph>
<glyph name="macroncomb.narrow" format="2">
  <anchor x="150" y="500" name="_top"/>
  <outline>
    <contour>
      <point x="25" y="580" type="line"/>
      <point x="275" y="580" type="line"/>
      <point x="275" y="637" type="line"/>
      <point x="25" y="637" type="line"/>
    </contour>
  </outline>
</glyph>
<glyph name="nine.numr" format="2">
  <advance width="354"/>
  <outline>
    <contour>
      <point x="155" y="273" type="curve" smooth="yes"/>
      <point x="263" y="273"/>
      <point x="320" y="368"/>
      <point x="320" y="505" type="curve" smooth="yes"/>
      <point x="320" y="614"/>
      <point x="282" y="707"/>
      <point x="167" y="707" type="curve" smooth="yes"/>
      <point x="80" y="707"/>
      <point x="21" y="651"/>
      <point x="21" y="572" type="curve" smooth="yes"/>
      <point x="21" y="493"/>
      <point x="78" y="434"/>
      <point x="159" y="434" type="curve" smooth="yes"/>
      <point x="214" y="434"/>
      <point x="257" y="463"/>
      <point x="276" y="511" type="curve"/>
      <point x="263" y="521" type="line"/>
      <point x="267" y="390"/>
      <point x="225" y="328"/>
      <point x="151" y="328" type="curve" smooth="yes"/>
      <point x="127" y="328"/>
      <point x="94" y="337"/>
      <point x="69" y="355" type="curve"/>
      <point x="36" y="310" type="line"/>
      <point x="69" y="286"/>
      <point x="113" y="273"/>
    </contour>
    <contour>
      <point x="166" y="486" type="curve" smooth="yes"/>
      <point x="119" y="486"/>
      <point x="83" y="521"/>
      <point x="83" y="570" type="curve" smooth="yes"/>
      <point x="83" y="618"/>
      <point x="118" y="653"/>
      <point x="166" y="653" type="curve" smooth="yes"/>
      <point x="215" y="653"/>
      <point x="250" y="618"/>
      <point x="250" y="570" type="curve" smooth="yes"/>
      <point x="250" y="522"/>
      <point x="215" y="486"/>
    </contour>
  </outline>
</glyph>
<glyph name="ogonekcomb.alt" format="2">
  <anchor x="144" y="33" name="_ogonek"/>
  <outline>
    <contour>
      <point x="134" y="-212" type="curve" smooth="yes"/>
      <point x="160" y="-212"/>
      <point x="189" y="-205"/>
      <point x="213" y="-192" type="curve"/>
      <point x="194" y="-146" type="line"/>
      <point x="176" y="-153"/>
      <point x="151" y="-157"/>
      <point x="127" y="-157" type="curve" smooth="yes"/>
      <point x="95" y="-157"/>
      <point x="76" y="-138"/>
      <point x="76" y="-106" type="curve" smooth="yes"/>
      <point x="76" y="-60"/>
      <point x="96" y="-8"/>
      <point x="144" y="33" type="curve"/>
      <point x="128" y="34" type="line"/>
      <point x="58" y="-3"/>
      <point x="16" y="-62"/>
      <point x="16" y="-125" type="curve" smooth="yes"/>
      <point x="16" y="-180"/>
      <point x="60" y="-212"/>
    </contour>
  </outline>
</glyph>
<glyph name="one.numr" format="2">
  <advance width="282"/>
  <outline>
    <contour>
      <point x="137" y="280" type="line"/>
      <point x="198" y="280" type="line"/>
      <point x="198" y="700" type="line"/>
      <point x="143" y="700" type="line"/>
      <point x="137" y="667" type="line"/>
    </contour>
    <contour>
      <point x="45" y="583" type="line"/>
      <point x="91" y="580"/>
      <point x="137" y="612"/>
      <point x="182" y="659" type="curve"/>
      <point x="143" y="700" type="line"/>
      <point x="112" y="666"/>
      <point x="70" y="639"/>
      <point x="45" y="639" type="curve"/>
    </contour>
  </outline>
</glyph>
<glyph name="one.tf" format="2">
  <advance width="620"/>
  <outline>
    <contour>
      <point x="150" y="0" type="line"/>
      <point x="529" y="0" type="line"/>
      <point x="529" y="57" type="line"/>
      <point x="150" y="57" type="line"/>
    </contour>
    <component base="one" xOffset="85"/>
  </outline>
</glyph>
<glyph name="six.numr" format="2">
  <advance width="354"/>
  <outline>
    <contour>
      <point x="187" y="273" type="curve" smooth="yes"/>
      <point x="274" y="273"/>
      <point x="333" y="329"/>
      <point x="333" y="408" type="curve" smooth="yes"/>
      <point x="333" y="487"/>
      <point x="276" y="546"/>
      <point x="195" y="546" type="curve" smooth="yes"/>
      <point x="140" y="546"/>
      <point x="97" y="516"/>
      <point x="78" y="469" type="curve"/>
      <point x="91" y="459" type="line"/>
      <point x="87" y="590"/>
      <point x="130" y="652"/>
      <point x="203" y="652" type="curve" smooth="yes"/>
      <point x="227" y="652"/>
      <point x="260" y="643"/>
      <point x="286" y="625" type="curve"/>
      <point x="319" y="670" type="line"/>
      <point x="286" y="694"/>
      <point x="240" y="707"/>
      <point x="199" y="707" type="curve" smooth="yes"/>
      <point x="92" y="707"/>
      <point x="34" y="613"/>
      <point x="34" y="475" type="curve" smooth="yes"/>
      <point x="34" y="365"/>
      <point x="73" y="273"/>
    </contour>
    <contour>
      <point x="188" y="327" type="curve" smooth="yes"/>
      <point x="139" y="327"/>
      <point x="104" y="361"/>
      <point x="104" y="410" type="curve" smooth="yes"/>
      <point x="104" y="459"/>
      <point x="139" y="494"/>
      <point x="188" y="494" type="curve" smooth="yes"/>
      <point x="236" y="494"/>
      <point x="271" y="459"/>
      <point x="271" y="410" type="curve" smooth="yes"/>
      <point x="271" y="361"/>
      <point x="236" y="327"/>
    </contour>
  </outline>
</glyph>
<glyph name="t.001" format="2">
  <advance width="377"/>
  <outline>
    <contour>
      <point x="266" y="-12" type="curve" smooth="yes"/>
      <point x="291" y="-12"/>
      <point x="312" y="-8"/>
      <point x="348" y="13" type="curve"/>
      <point x="323" y="65" type="line"/>
      <point x="293" y="45"/>
      <point x="282" y="43"/>
      <point x="266" y="43" type="curve" smooth="yes"/>
      <point x="211" y="43"/>
      <point x="179" y="74"/>
      <point x="179" y="128" type="curve" smooth="yes"/>
      <point x="179" y="656" type="line"/>
      <point x="119" y="656" type="line"/>
      <point x="119" y="128" type="line" smooth="yes"/>
      <point x="119" y="39"/>
      <point x="174" y="-12"/>
    </contour>
    <contour>
      <point x="30" y="445" type="line"/>
      <point x="338" y="445" type="line"/>
      <point x="338" y="500" type="line"/>
      <point x="30" y="500" type="line"/>
    </contour>
  </outline>
</glyph>
<glyph name="three.numr" format="2">
  <advance width="354"/>
  <outline>
    <contour>
      <point x="180" y="273" type="curve" smooth="yes"/>
      <point x="256" y="273"/>
      <point x="319" y="320"/>
      <point x="319" y="396" type="curve" smooth="yes"/>
      <point x="319" y="475"/>
      <point x="243" y="522"/>
      <point x="144" y="522" type="curve" smooth="yes"/>
      <point x="129" y="522" type="line"/>
      <point x="129" y="476" type="line"/>
      <point x="146" y="476" type="line" smooth="yes"/>
      <point x="218" y="476"/>
      <point x="256" y="448"/>
      <point x="256" y="402" type="curve" smooth="yes"/>
      <point x="256" y="359"/>
      <point x="225" y="328"/>
      <point x="176" y="328" type="curve" smooth="yes"/>
      <point x="139" y="328"/>
      <point x="118" y="346"/>
      <point x="102" y="371" type="curve"/>
      <point x="47" y="348" type="line"/>
      <point x="64" y="308"/>
      <point x="111" y="273"/>
    </contour>
    <contour>
      <point x="129" y="484" type="line"/>
      <point x="144" y="484" type="line" smooth="yes"/>
      <point x="234" y="484"/>
      <point x="310" y="523"/>
      <point x="310" y="596" type="curve" smooth="yes"/>
      <point x="310" y="659"/>
      <point x="253" y="707"/>
      <point x="178" y="707" type="curve" smooth="yes"/>
      <point x="120" y="707"/>
      <point x="72" y="680"/>
      <point x="51" y="634" type="curve"/>
      <point x="104" y="612" type="line"/>
      <point x="121" y="640"/>
      <point x="147" y="652"/>
      <point x="175" y="652" type="curve" smooth="yes"/>
      <point x="219" y="652"/>
      <point x="247" y="624"/>
      <point x="247" y="591" type="curve" smooth="yes"/>
      <point x="247" y="551"/>
      <point x="209" y="529"/>
      <point x="146" y="529" type="curve" smooth="yes"/>
      <point x="129" y="529" type="line"/>
    </contour>
  </outline>
</glyph>
<glyph name="zero.tf.ss02" format="2">
  <advance width="620"/>
  <outline>
    <contour>
      <point x="109" y="159" type="line"/>
      <point x="157" y="125" type="line"/>
      <point x="512" y="529" type="line"/>
      <point x="474" y="576" type="line"/>
    </contour>
    <component base="zero" xOffset="-9"/>
  </outline>
</glyph>
